<svg width="15" height="15" viewBox="0 0 15 15" fill="none" xmlns="http://www.w3.org/2000/svg">
<path d="M7.5 1.3411e-06C9.57107 1.3411e-06 11.25 1.67893 11.25 3.75C11.25 5.75831 9.67128 7.39789 7.68716 7.49541L7.5 7.5C3.87564 7.5 0.9375 10.4381 0.9375 14.0625H6.09375C6.35263 14.0625 6.5625 14.2724 6.5625 14.5312C6.5625 14.7901 6.35263 15 6.09375 15H0.9375C0.419733 15 0 14.5803 0 14.0625C0 10.7019 2.21029 7.85753 5.25644 6.90383L5.40499 6.86067C4.40656 6.18691 3.75 5.04513 3.75 3.75C3.75 1.67893 5.42893 1.3411e-06 7.5 1.3411e-06ZM11.082 7.59382C11.4081 7.73564 11.6413 8.04133 11.6995 8.4034C11.7282 8.55075 11.7157 8.70274 11.6647 8.84181L11.6192 8.94342H13.9619C14.364 8.93011 14.7356 9.16498 14.909 9.54196C15.0306 9.79774 15.0303 10.0978 14.9081 10.3533C14.7898 10.6439 14.5447 10.8581 14.2488 10.9297C14.1783 10.9551 14.1049 10.97 14.0307 10.9741L13.9191 10.9723H13.2854C13.2834 11.2056 13.2074 11.4318 13.0694 11.616C13.1709 11.8471 13.1834 12.1098 13.1044 12.3502C13.0398 12.5731 12.8879 12.7574 12.6859 12.8583L12.7064 12.9133C12.7153 12.9297 12.7212 12.9478 12.7235 12.9665C12.7814 13.4548 12.4535 13.9019 11.9847 13.9738C11.943 14.0033 11.8973 14.0256 11.8492 14.0403L11.7755 14.0563L11.7866 14.0625H9.57205C9.5105 14.0568 9.44964 14.0454 9.39019 14.0284L9.30217 13.9987L9.13734 13.8922L9.0154 13.8345L8.81301 13.7134L8.72398 13.667H7.90495C7.80301 13.6638 7.70514 13.6247 7.62739 13.5562C7.57086 13.4986 7.53123 13.4263 7.51218 13.3476L7.50014 13.2671V9.34688C7.49503 9.14591 7.62994 8.97477 7.81291 8.93447L7.8836 8.92569H8.65395L9.00787 8.59862L9.91111 7.78624C10.233 7.49302 10.6886 7.41814 11.082 7.59382ZM10.5772 8.45552L10.5364 8.48474L9.70363 9.23295L9.29476 9.60999C9.15 9.74555 8.96678 9.83101 8.772 9.85573L8.65396 9.86318L8.4375 9.86344L8.43563 12.7303L8.72399 12.7295C8.82948 12.7295 8.93395 12.7473 9.03306 12.7819L9.13024 12.8221L9.273 12.8966L9.45566 13.0068L9.64581 13.1046L9.67594 13.125H11.5913L11.634 13.1044C11.6674 13.0909 11.7016 13.0794 11.7365 13.0698L11.7722 13.0622L11.7604 13.0079C11.7013 12.644 11.8622 12.2779 12.1703 12.0753L12.2147 12.0497L12.2182 12.0246L12.211 11.993C12.075 11.6833 12.1163 11.3243 12.3193 11.0537C12.3311 11.0379 12.3398 11.0185 12.3443 10.9971L12.348 10.9639C12.3522 10.4862 12.7133 10.0945 13.1768 10.041L13.2854 10.0348L13.9631 10.0387L14.0299 10.0166L14.0624 9.94885L14.0572 9.93362C14.0457 9.90864 14.0303 9.89301 14.0059 9.88572L13.9619 9.88092H11.6192C10.9487 9.88092 10.5072 9.20394 10.7459 8.60171L10.7719 8.54625L10.7597 8.50746C10.753 8.49417 10.7445 8.48257 10.7344 8.4729L10.6997 8.44984C10.6607 8.43243 10.6184 8.43343 10.5772 8.45552ZM7.50001 0.9375C5.94671 0.9375 4.68751 2.1967 4.68751 3.75C4.68751 4.63404 5.09756 5.44734 5.77922 5.97495L5.9294 6.08356L6.70032 6.60469L6.78533 6.59454C6.93721 6.58052 7.09038 6.57107 7.2447 6.56633L7.64115 6.55904C9.13353 6.48569 10.3125 5.25089 10.3125 3.75C10.3125 2.1967 9.0533 0.9375 7.50001 0.9375Z" fill="white"/>
</svg>
