<svg width="70" height="14" viewBox="0 0 70 14" fill="none" xmlns="http://www.w3.org/2000/svg">
<path d="M11.3545 11.0187C11.4564 11.0187 11.5488 11.0601 11.6316 11.1429L12.3579 11.9361C11.7973 12.5859 11.1172 13.0924 10.3176 13.4555C9.5181 13.8187 8.55451 14.0002 7.42686 14.0002C6.43938 14.0002 5.54427 13.8298 4.74154 13.489C3.93881 13.1481 3.25394 12.6703 2.68693 12.0555C2.11992 11.4407 1.68033 10.7033 1.36816 9.84325C1.05599 8.98318 0.899902 8.03711 0.899902 7.00502C0.899902 5.97294 1.06714 5.02687 1.40161 4.1668C1.73608 3.30673 2.20593 2.56771 2.81116 1.94973C3.4164 1.33176 4.14109 0.85235 4.98523 0.511508C5.82937 0.170667 6.76111 0.000246048 7.78045 0.000244141C8.78705 0.000244141 9.65508 0.156331 10.3845 0.468504C11.114 0.780677 11.7622 1.20434 12.3293 1.73949L11.7272 2.59001C11.6826 2.65371 11.6316 2.70627 11.5743 2.74769C11.517 2.7891 11.4341 2.8098 11.3258 2.8098C11.243 2.8098 11.1554 2.77954 11.063 2.71902C10.9707 2.65849 10.8608 2.58364 10.7333 2.49444C10.6059 2.40525 10.4562 2.30969 10.2842 2.20775C10.1122 2.10582 9.90832 2.01026 9.6726 1.92106C9.43688 1.83187 9.16293 1.75701 8.85076 1.69649C8.53858 1.63597 8.17863 1.60571 7.77089 1.60571C7.03824 1.60571 6.36771 1.73153 5.75929 1.98318C5.15087 2.23483 4.62686 2.59319 4.18727 3.05826C3.74768 3.52334 3.40525 4.09035 3.15997 4.75929C2.91469 5.42823 2.79205 6.17681 2.79205 7.00502C2.79205 7.85872 2.91469 8.62004 3.15997 9.28898C3.40525 9.95792 3.73972 10.5233 4.16338 10.9852C4.58705 11.4471 5.08875 11.7991 5.6685 12.0412C6.24825 12.2833 6.8726 12.4043 7.54154 12.4043C7.94928 12.4043 8.3156 12.3804 8.64052 12.3327C8.96543 12.2849 9.26646 12.21 9.54359 12.1081C9.82072 12.0062 10.0787 11.8772 10.3176 11.7211C10.5566 11.565 10.7971 11.3786 11.0392 11.162C11.1475 11.0665 11.2526 11.0187 11.3545 11.0187ZM19.5156 12.2897H25.4405V13.8473H17.6617V0.153146H19.5156V12.2897ZM42.3074 7.00502C42.3074 8.03074 42.145 8.97203 41.82 9.82891C41.4951 10.6858 41.0364 11.4232 40.4439 12.0412C39.8514 12.6592 39.1395 13.1386 38.3081 13.4794C37.4767 13.8203 36.5577 13.9907 35.5511 13.9907C34.5445 13.9907 33.6271 13.8203 32.7989 13.4794C31.9707 13.1386 31.2603 12.6592 30.6678 12.0412C30.0753 11.4232 29.6166 10.6858 29.2917 9.82891C28.9668 8.97203 28.8043 8.03074 28.8043 7.00502C28.8043 5.97931 28.9668 5.03802 29.2917 4.18113C29.6166 3.32425 30.0753 2.58523 30.6678 1.96407C31.2603 1.34291 31.9707 0.860312 32.7989 0.516286C33.6271 0.17226 34.5445 0.000246048 35.5511 0.000244141C36.5577 0.000244141 37.4767 0.172258 38.3081 0.516286C39.1395 0.860314 39.8514 1.34291 40.4439 1.96407C41.0364 2.58523 41.4951 3.32425 41.82 4.18113C42.145 5.03802 42.3074 5.97931 42.3074 7.00502ZM40.4057 7.00502C40.4057 6.16407 40.291 5.40912 40.0617 4.74018C39.8323 4.07123 39.5074 3.50582 39.0869 3.04393C38.6665 2.58204 38.1568 2.22687 37.5579 1.9784C36.9591 1.72994 36.2901 1.60571 35.5511 1.60571C34.8184 1.60571 34.1527 1.72994 33.5538 1.9784C32.955 2.22687 32.4437 2.58204 32.02 3.04393C31.5964 3.50582 31.2699 4.07123 31.0405 4.74018C30.8112 5.40912 30.6965 6.16407 30.6965 7.00502C30.6965 7.84598 30.8112 8.59933 31.0405 9.26509C31.2699 9.93085 31.5964 10.4947 32.02 10.9566C32.4437 11.4184 32.955 11.772 33.5538 12.0173C34.1527 12.2626 34.8184 12.3852 35.5511 12.3852C36.2901 12.3852 36.9591 12.2626 37.5579 12.0173C38.1568 11.772 38.6665 11.4184 39.0869 10.9566C39.5074 10.4947 39.8323 9.93085 40.0617 9.26509C40.291 8.59933 40.4057 7.84598 40.4057 7.00502ZM54.7211 2.29376C54.6637 2.38932 54.6032 2.461 54.5395 2.50878C54.4758 2.55656 54.393 2.58045 54.291 2.58045C54.1827 2.58045 54.0569 2.5263 53.9135 2.41799C53.7702 2.30969 53.5886 2.19023 53.3688 2.05963C53.149 1.92903 52.8847 1.80958 52.5757 1.70127C52.2667 1.59296 51.8924 1.53881 51.4528 1.53881C51.0387 1.53881 50.6724 1.59456 50.3538 1.70605C50.0353 1.81754 49.7693 1.96885 49.5559 2.15997C49.3424 2.3511 49.1816 2.57567 49.0733 2.83369C48.965 3.09171 48.9108 3.37044 48.9108 3.66987C48.9108 4.05212 49.0048 4.36907 49.1927 4.62072C49.3807 4.87237 49.6291 5.08739 49.9381 5.26577C50.2471 5.44416 50.5975 5.59865 50.9893 5.72925C51.3811 5.85986 51.7825 5.99524 52.1934 6.1354C52.6043 6.27556 53.0057 6.43324 53.3975 6.60844C53.7893 6.78364 54.1397 7.00502 54.4487 7.2726C54.7577 7.54018 55.0062 7.86828 55.1941 8.2569C55.382 8.64552 55.476 9.12334 55.476 9.69035C55.476 10.2892 55.3741 10.8514 55.1702 11.377C54.9663 11.9026 54.6685 12.3597 54.2767 12.7484C53.8849 13.137 53.4039 13.4428 52.8337 13.6658C52.2635 13.8888 51.6153 14.0002 50.889 14.0002C50.0034 14.0002 49.1959 13.8394 48.4664 13.5177C47.737 13.1959 47.1142 12.7611 46.5982 12.2132L47.1333 11.334C47.1843 11.264 47.2464 11.205 47.3197 11.1572C47.393 11.1095 47.4742 11.0856 47.5634 11.0856C47.6972 11.0856 47.8501 11.1572 48.0221 11.3006C48.1941 11.4439 48.4091 11.6016 48.6671 11.7736C48.9252 11.9456 49.2373 12.1033 49.6036 12.2467C49.97 12.39 50.4175 12.4617 50.9463 12.4617C51.3859 12.4617 51.7777 12.4012 52.1217 12.2801C52.4658 12.1591 52.7572 11.9886 52.9961 11.7688C53.2351 11.549 53.4182 11.2863 53.5456 10.9804C53.673 10.6746 53.7368 10.3338 53.7368 9.95792C53.7368 9.54382 53.6428 9.20457 53.4548 8.94018C53.2669 8.67579 53.02 8.4544 52.7142 8.27601C52.4084 8.09763 52.0596 7.94632 51.6678 7.82209C51.276 7.69786 50.8746 7.57044 50.4637 7.43984C50.0528 7.30923 49.6514 7.15792 49.2596 6.98591C48.8678 6.8139 48.519 6.59092 48.2132 6.31697C47.9074 6.04302 47.6605 5.70059 47.4726 5.28966C47.2847 4.87874 47.1907 4.37067 47.1907 3.76543C47.1907 3.28125 47.2847 2.81299 47.4726 2.36065C47.6605 1.90832 47.9329 1.50696 48.2897 1.15656C48.6464 0.806162 49.0876 0.525844 49.6132 0.315604C50.1388 0.105366 50.7424 0.000246048 51.4241 0.000244141C52.1886 0.000244141 52.8862 0.121291 53.517 0.363385C54.1477 0.605479 54.6988 0.955877 55.1702 1.41458L54.7211 2.29376ZM69.1415 0.153146V1.66304H62.5668V6.21185H67.8897V7.66441H62.5668V12.3374H69.1415V13.8473H60.7033V0.153146H69.1415Z" fill="white"/>
</svg>
