<svg width="17" height="16" viewBox="0 0 17 16" fill="none" xmlns="http://www.w3.org/2000/svg">
<path d="M4.436 8.863C4.305 8.736 4.2995 8.5275 4.4245 8.3945C4.5475 8.263 4.754 8.2565 4.8855 8.38L4.8885 8.383L8.35 11.7235V0.832C8.35 0.6485 8.4985 0.5 8.682 0.5C8.8655 0.5 9.014 0.6485 9.014 0.832V11.7065L12.3455 8.387C12.473 8.26 12.6795 8.2605 12.8065 8.388L12.8095 8.391C12.9365 8.522 12.9345 8.7305 12.8055 8.8595L8.9435 12.7095C8.8305 12.854 8.622 12.8795 8.4775 12.7665C8.4585 12.7515 8.441 12.7345 8.4255 12.716L4.436 8.863ZM15.7 12.185C15.7 12.0015 15.849 11.8525 16.0325 11.8525C16.2155 11.8525 16.3645 12.0015 16.3645 12.185V15.168C16.3645 15.3515 16.216 15.5 16.0325 15.5H16.03H1.332C1.1485 15.5 1 15.3515 1 15.168V12.185C1 12.0015 1.149 11.8525 1.3325 11.8525C1.516 11.8525 1.6645 12.0015 1.6645 12.185V14.835H15.7V12.185Z" fill="white" stroke="white" stroke-width="0.5"/>
</svg>
