<svg width="73" height="74" viewBox="0 0 73 74" fill="none" xmlns="http://www.w3.org/2000/svg">
<path d="M0.5 10.1182C0.5 4.87146 4.7533 0.618164 10 0.618164H63C68.2467 0.618164 72.5 4.87146 72.5 10.1182V63.1182C72.5 68.3649 68.2467 72.6182 63 72.6182H10C4.7533 72.6182 0.5 68.3649 0.5 63.1182V10.1182Z" stroke="white"/>
<path d="M55.5917 25.0592C55.5917 24.542 55.1695 24.1182 54.6523 24.1182H18.9394C18.4223 24.1182 18 24.542 18 25.0592V27.6559L36.7959 37.0547L55.5917 27.6559V25.0592Z" fill="white"/>
<path d="M55.5917 30.5437L36.7959 39.9424L18 30.5437V48.1788C18 48.6943 18.4223 49.1181 18.9394 49.1181H54.6523C55.1695 49.1181 55.5917 48.6943 55.5917 48.1788V30.5437Z" fill="white"/>
</svg>
