<svg width="73" height="74" viewBox="0 0 73 74" fill="none" xmlns="http://www.w3.org/2000/svg">
<path d="M0.5 10.1182C0.5 4.87146 4.7533 0.618164 10 0.618164H63C68.2467 0.618164 72.5 4.87146 72.5 10.1182V63.1182C72.5 68.3649 68.2467 72.6182 63 72.6182H10C4.7533 72.6182 0.5 68.3649 0.5 63.1182V10.1182Z" stroke="white"/>
<path d="M44.3855 38.657L45.3498 32.3704H39.3182V28.2909C39.3182 26.5709 40.1602 24.8948 42.8618 24.8948H45.6041V19.5429C45.6041 19.5429 43.1155 19.1182 40.7363 19.1182C35.769 19.1182 32.5217 22.1291 32.5217 27.5791V32.3704H27V38.657H32.5217V53.854C33.6292 54.0275 34.7639 54.1181 35.9202 54.1181C37.0759 54.1181 38.2106 54.0275 39.3182 53.854V38.657H44.3855Z" fill="white"/>
</svg>
