<svg width="50" height="50" viewBox="0 0 50 50" fill="none" xmlns="http://www.w3.org/2000/svg">
<path d="M46.8192 4.18934C44.5298 1.62435 41.2086 0.000610352 37.5005 0.000610352H33.188V13.2762L46.8192 4.18934Z" fill="#0D2764"/>
<path d="M16.8129 0.000610352H12.5005C8.79175 0.000610352 5.46989 1.62498 3.18115 4.19059L16.8129 13.2774V0.000610352Z" fill="#0D2764"/>
<path d="M50.0006 16.8146V14.6526L46.7568 16.8146H50.0006Z" fill="#0D2764"/>
<path d="M50.0006 35.3994V33.1913H46.688L50.0006 35.3994Z" fill="#0D2764"/>
<path d="M0.000976562 33.1913V35.399L3.31276 33.1913H0.000976562Z" fill="#0D2764"/>
<path d="M33.188 50.0002H37.5005C41.1948 50.0002 44.5042 48.3878 46.7923 45.8403L33.188 36.7728V50.0002Z" fill="#0D2764"/>
<path d="M3.2085 45.8397C5.49722 48.3878 8.80658 50.0003 12.5009 50.0003H16.8134V36.7722L3.2085 45.8397Z" fill="#0D2764"/>
<path d="M0.000976562 14.6528V16.8147H3.2444L0.000976562 14.6528Z" fill="#0D2764"/>
<path d="M20.2227 0.000610352H16.8134V13.2774L3.18158 4.19059C2.02034 5.4912 1.11972 7.02869 0.581604 8.73181L12.734 16.8149H6.25095L0.000976562 12.6568V14.653L3.24471 16.8149H0.000976562V20.2255H20.2227V0.000610352Z" fill="white"/>
<path d="M29.7754 50.0003H33.1879V36.7729L46.7922 45.8403C47.989 44.5078 48.9115 42.926 49.4503 41.1704L37.451 33.191H43.9328L50.0003 37.2254V35.3998L46.6878 33.191H50.0003V29.7742H29.7754V50.0003Z" fill="white"/>
<path d="M33.1879 16.8149V15.1818L47.8209 5.4512C47.5165 5.00683 47.1765 4.58996 46.819 4.18934L33.1879 13.2762V0.000610352H29.7754V20.2255H50.0003V16.8149H46.7565L50.0003 14.6524V12.5005C50.0003 11.1768 49.7915 9.90368 49.4103 8.70618L37.2216 16.8149H33.1879Z" fill="white"/>
<path d="M0.000976562 29.7742V33.191H3.31284L0.000976562 35.3991V37.5004C0.000976562 38.7791 0.195358 40.0122 0.552231 41.1747L12.559 33.191H16.8134V34.6673L2.11034 44.4466C2.44034 44.9397 2.81346 45.3997 3.20847 45.8397L16.8134 36.7723V50.0003H20.2227V29.7742H0.000976562Z" fill="white"/>
<path d="M29.7759 0.000244141H20.2227V20.2257H0.000976562V29.7742H20.2227V49.9999H29.7759V29.7742H50.0007V20.2257H29.7759V0.000244141Z" fill="#C20320"/>
<path d="M37.4512 33.191L49.4505 41.1704C49.8067 40.0097 50.0005 38.7779 50.0005 37.5004V37.2254L43.933 33.191H37.4512Z" fill="#C20320"/>
<path d="M33.188 15.1817V16.8149H37.2217L49.4104 8.70615C49.0385 7.53741 48.4991 6.44304 47.821 5.45117L33.188 15.1817Z" fill="#C20320"/>
<path d="M16.8134 33.191H12.5591L0.552246 41.1747C0.912872 42.3485 1.44098 43.4479 2.11035 44.4466L16.8134 34.6673V33.191Z" fill="#C20320"/>
<path d="M12.734 16.8149L0.581604 8.73181C0.205978 9.92118 0.000976562 11.1862 0.000976562 12.5005V12.6568L6.25095 16.8149H12.734Z" fill="#C20320"/>
</svg>
