<svg width="15" height="15" viewBox="0 0 15 15" fill="none" xmlns="http://www.w3.org/2000/svg">
<path d="M10.9884 15H4.01163C0.934884 15 0 14.0651 0 10.9884V4.01163C0 0.934884 0.934884 0 4.01163 0H5.05814C6.27907 0 6.66279 0.397674 7.15116 1.04651L8.19767 2.44186C8.42791 2.74884 8.46279 2.7907 8.89535 2.7907H10.9884C14.0651 2.7907 15 3.72558 15 6.80233V10.9884C15 14.0651 14.0651 15 10.9884 15ZM4.01163 1.04651C1.52093 1.04651 1.04651 1.52093 1.04651 4.01163V10.9884C1.04651 13.4791 1.52093 13.9535 4.01163 13.9535H10.9884C13.4791 13.9535 13.9535 13.4791 13.9535 10.9884V6.80233C13.9535 4.31163 13.4791 3.83721 10.9884 3.83721H8.89535C8.00233 3.83721 7.7093 3.53023 7.36047 3.06977L6.31395 1.67442C5.95116 1.19302 5.84651 1.04651 5.05814 1.04651H4.01163Z" fill="white"/>
</svg>
