<svg width="15" height="15" viewBox="0 0 15 15" fill="none" xmlns="http://www.w3.org/2000/svg">
<path d="M7.38721 4.16385C7.02263 4.52843 6.43153 4.52843 6.06695 4.16385C5.70237 3.79927 5.70237 3.20817 6.06695 2.84359L7.65321 1.26343C9.33737 -0.412355 12.0591 -0.412355 13.7432 1.26343L13.7518 1.27319C15.4194 2.95829 15.4156 5.67305 13.7432 7.35345L12.157 8.93361C11.7924 9.29819 11.2013 9.29819 10.8367 8.93361C10.4721 8.56903 10.4721 7.97793 10.8367 7.61335L12.423 6.0271C13.3663 5.07263 13.3663 3.53693 12.423 2.58247L12.4096 2.56905C11.4532 1.63051 9.92028 1.63432 8.96859 2.57759L7.38843 4.16385H7.38721ZM9.09549 4.54943C9.46605 4.22646 10.0236 4.24622 10.3704 4.59461C10.7171 4.943 10.7343 5.50062 10.4096 5.86969L5.86318 10.4162C5.49628 10.7646 4.91858 10.7573 4.56063 10.3996C4.20269 10.042 4.19483 9.46434 4.54292 9.09712L9.09061 4.54943H9.09549ZM7.57756 10.8725C7.94478 10.5244 8.52247 10.5323 8.88008 10.8902C9.2377 11.2482 9.24502 11.8259 8.89659 12.1928L7.34694 13.7436C5.66989 15.4127 2.96164 15.4204 1.27522 13.7607L1.24106 13.7278C-0.419848 12.0411 -0.412772 9.33157 1.25692 7.65362L2.80658 6.10763C3.03715 5.85139 3.39018 5.74309 3.72479 5.82593C4.05939 5.90877 4.32111 6.16928 4.4055 6.5035C4.48989 6.83772 4.38322 7.19124 4.12805 7.423L2.57718 8.97388C1.63292 9.92891 1.63292 11.4659 2.57718 12.4209C3.53195 13.3681 5.07192 13.3681 6.02668 12.4209L7.57756 10.8725Z" fill="white"/>
</svg>
