<svg width="254" height="20" viewBox="0 0 254 20" fill="none" xmlns="http://www.w3.org/2000/svg">
<g opacity="0.5">
<path d="M28.4268 3.12274C28.0984 1.89351 27.1305 0.925568 25.9012 0.596802C23.6733 0 14.74 0 14.74 0C14.74 0 5.80632 0 3.57846 0.596802C2.34953 0.925568 1.38162 1.89351 1.05289 3.12274C0.456055 5.35062 0.456055 9.9986 0.456055 9.9986C0.456055 9.9986 0.456055 14.6469 1.05289 16.8748C1.38162 18.104 2.34953 19.072 3.57846 19.4007C5.80632 19.9975 14.74 19.9975 14.74 19.9975C14.74 19.9975 23.6733 19.9975 25.9012 19.4007C27.1305 19.072 28.0984 18.104 28.4268 16.8748C29.0239 14.6469 29.0239 9.9986 29.0239 9.9986C29.0239 9.9986 29.0239 5.35062 28.4268 3.12274ZM11.8832 14.2839V5.71358L19.3051 9.99893L11.8832 14.2839Z" fill="white"/>
<path d="M144.876 11.1637L145.427 7.57176H141.981V5.24092C141.981 4.25818 142.462 3.30052 144.005 3.30052H145.572V0.242676C145.572 0.242676 144.15 0 142.791 0C139.953 0 138.097 1.72028 138.097 4.83418V7.57176H134.942V11.1637H138.097V19.8466C138.73 19.9457 139.378 19.9975 140.039 19.9975C140.699 19.9975 141.348 19.9457 141.981 19.8466V11.1637H144.876Z" fill="white"/>
<path d="M170.947 1.80142C173.617 1.80142 173.933 1.81165 174.987 1.85997C175.962 1.9044 176.492 2.067 176.844 2.20422C177.311 2.38553 177.644 2.60213 177.994 2.95203C178.344 3.30194 178.56 3.63492 178.742 4.10156C178.879 4.45398 179.042 4.9834 179.086 5.95837C179.134 7.01268 179.144 7.32909 179.144 9.9986C179.144 12.6684 179.134 12.9848 179.086 14.0391C179.042 15.0137 178.879 15.5432 178.742 15.8955C178.56 16.3623 178.344 16.6956 177.994 17.0455C177.644 17.3954 177.311 17.612 176.844 17.7933C176.492 17.9301 175.962 18.0931 174.987 18.1376C173.934 18.1855 173.617 18.1957 170.947 18.1957C168.277 18.1957 167.961 18.1855 166.907 18.1376C165.932 18.0931 165.403 17.9301 165.05 17.7933C164.584 17.612 164.251 17.3954 163.901 17.0455C163.551 16.6956 163.334 16.3623 163.153 15.8955C163.016 15.5432 162.853 15.0137 162.808 14.0391C162.76 12.9848 162.75 12.6684 162.75 9.9986C162.75 7.32909 162.76 7.01268 162.808 5.95837C162.853 4.9834 163.016 4.45398 163.153 4.10156C163.334 3.63492 163.551 3.30194 163.901 2.95203C164.251 2.60213 164.584 2.38553 165.05 2.20422C165.403 2.067 165.932 1.9044 166.907 1.85997C167.961 1.81165 168.277 1.80142 170.947 1.80142ZM170.947 0C168.232 0 167.891 0.0116577 166.825 0.059967C165.761 0.108643 165.034 0.277588 164.398 0.524887C163.74 0.780258 163.182 1.12242 162.627 1.67833C162.071 2.23424 161.729 2.7915 161.474 3.44904C161.226 4.08502 161.057 4.812 161.009 5.87617C160.96 6.94286 160.949 7.28323 160.949 9.9986C160.949 12.7143 160.96 13.0546 161.009 14.1213C161.057 15.1855 161.226 15.9121 161.474 16.5481C161.729 17.2056 162.071 17.7633 162.627 18.3192C163.182 18.8751 163.74 19.2169 164.398 19.4726C165.034 19.7196 165.761 19.8889 166.825 19.9372C167.891 19.9859 168.232 19.9975 170.947 19.9975C173.663 19.9975 174.003 19.9859 175.07 19.9372C176.134 19.8889 176.861 19.7196 177.497 19.4726C178.154 19.2169 178.712 18.8751 179.268 18.3192C179.824 17.7633 180.166 17.2056 180.421 16.5481C180.668 15.9121 180.837 15.1855 180.886 14.1213C180.935 13.0546 180.946 12.7143 180.946 9.9986C180.946 7.28323 180.935 6.94286 180.886 5.87617C180.837 4.812 180.668 4.08502 180.421 3.44904C180.166 2.7915 179.824 2.23424 179.268 1.67833C178.712 1.12242 178.154 0.780258 177.497 0.524887C176.861 0.277588 176.134 0.108643 175.07 0.059967C174.003 0.0116577 173.663 0 170.947 0Z" fill="white"/>
<path d="M170.947 4.86426C168.112 4.86426 165.813 7.16306 165.813 9.99866C165.813 12.8346 168.112 15.1334 170.947 15.1334C173.783 15.1334 176.082 12.8346 176.082 9.99866C176.082 7.16306 173.783 4.86426 170.947 4.86426ZM170.947 13.3316C169.107 13.3316 167.614 11.8396 167.614 9.99866C167.614 8.1581 169.107 6.66605 170.947 6.66605C172.788 6.66605 174.28 8.1581 174.28 9.99866C174.28 11.8396 172.788 13.3316 170.947 13.3316Z" fill="white"/>
<ellipse cx="176.285" cy="4.66128" rx="1.19985" ry="1.19985" fill="white"/>
<path d="M72.3838 4.62605C72.2808 6.87651 70.709 9.95802 67.6681 13.8695C64.5245 17.9541 61.8645 19.9975 59.6896 19.9975C58.341 19.9975 57.2007 18.7541 56.2687 16.2656C55.6469 13.9844 55.0254 11.7037 54.4028 9.42256C53.7107 6.93574 52.9689 5.6906 52.1749 5.6906C52.002 5.6906 51.3968 6.05464 50.3601 6.77949L49.2729 5.37846C50.4141 4.37599 51.5396 3.37385 52.6469 2.36958C54.1689 1.05534 55.3121 0.363233 56.0737 0.293775C57.8723 0.120588 58.9802 1.35054 59.3957 3.98298C59.8451 6.82356 60.1562 8.59007 60.3304 9.28145C60.85 11.6384 61.4208 12.8155 62.0437 12.8155C62.5273 12.8155 63.2546 12.0511 64.2243 10.5217C65.1918 8.9936 65.7107 7.83064 65.7805 7.03099C65.9188 5.71174 65.4 5.05073 64.2243 5.05073C63.6705 5.05073 63.0998 5.17808 62.5125 5.42994C63.6494 1.7082 65.8204 -0.0991695 69.0246 0.00419357C71.4003 0.0736821 72.521 1.61442 72.3838 4.62605Z" fill="white"/>
<path d="M243.569 0C238.051 0 233.578 4.47298 233.578 9.99045C233.578 14.225 236.209 17.843 239.926 19.2984C239.836 18.509 239.761 17.292 239.959 16.4289C240.14 15.6476 241.126 11.4624 241.126 11.4624C241.126 11.4624 240.831 10.8621 240.831 9.98236C240.831 8.59258 241.636 7.55663 242.639 7.55663C243.494 7.55663 243.906 8.19786 243.906 8.9626C243.906 9.81798 243.363 11.1005 243.075 12.2927C242.837 13.2878 243.577 14.1019 244.555 14.1019C246.331 14.1019 247.696 12.2271 247.696 9.53017C247.696 7.13721 245.978 5.46806 243.519 5.46806C240.674 5.46806 239.005 7.59789 239.005 9.80139C239.005 10.6564 239.334 11.5774 239.745 12.079C239.827 12.1778 239.836 12.2681 239.811 12.3668C239.737 12.6793 239.564 13.3618 239.531 13.5015C239.49 13.6825 239.383 13.7234 239.194 13.6331C237.944 13.0493 237.163 11.2321 237.163 9.76013C237.163 6.61096 239.449 3.71674 243.766 3.71674C247.228 3.71674 249.925 6.18343 249.925 9.48888C249.925 12.934 247.754 15.7051 244.745 15.7051C243.733 15.7051 242.779 15.1788 242.458 14.5541C242.458 14.5541 241.957 16.4617 241.833 16.9305C241.612 17.8021 241.003 18.8875 240.592 19.5534C241.529 19.8412 242.516 19.9975 243.552 19.9975C249.069 19.9975 253.543 15.5245 253.543 10.007C253.559 4.47298 249.086 0 243.569 0Z" fill="white"/>
<path d="M216.303 4.86952C216.303 4.7792 216.3 4.77566 216.206 4.77674C215.979 4.77883 215.754 4.7517 215.53 4.7178C214.718 4.59542 212.084 3.21339 211.638 0.953074C211.629 0.909006 211.53 0.348139 211.531 0.109339C211.531 0.00242078 211.53 0.00242078 211.424 0.000711799C211.4 0.00033033 211.376 0.000711799 211.351 0.000711799C210.32 0.000711799 209.29 -5.36384e-06 208.259 0.00104749C208.051 0.00104749 208.08 -0.0250603 208.08 0.183405C208.08 4.65359 208.08 9.12382 208.081 13.5941C208.081 13.7609 208.076 13.9274 208.046 14.0907C207.891 14.9557 207.448 15.6329 206.698 16.0953C206.049 16.4957 205.344 16.6099 204.595 16.4618C204.359 16.4152 204.138 16.3264 203.916 16.2382L203.862 16.1891C203.787 16.1267 203.705 16.0752 203.625 16.0198C202.671 15.3592 202.218 14.4417 202.356 13.2946C202.496 12.1309 203.165 11.3408 204.269 10.9338C204.597 10.8124 204.944 10.7623 205.296 10.781C205.523 10.793 205.748 10.8219 205.968 10.8844C206.044 10.9059 206.085 10.8791 206.088 10.7983C206.09 10.7701 206.091 10.7419 206.091 10.7133C206.091 9.91078 206.061 8.15804 206.057 8.15418C206.058 7.92312 206.058 7.69206 206.063 7.46104C206.064 7.39439 206.031 7.38275 205.975 7.37638C205.559 7.32699 205.143 7.31748 204.725 7.34819C204.147 7.39053 203.587 7.50901 203.043 7.70478C202.175 8.01698 201.413 8.49986 200.755 9.14431C200.19 9.69773 199.746 10.3376 199.42 11.059C199.109 11.7492 198.93 12.4738 198.881 13.2283C198.859 13.5553 198.863 13.884 198.893 14.2121C198.935 14.666 199.021 15.1098 199.159 15.5433C199.556 16.7888 200.277 17.8107 201.299 18.6212C201.403 18.7035 201.503 18.7941 201.628 18.8477C201.68 18.8939 201.732 18.9402 201.784 18.9867C201.95 19.1112 202.127 19.2181 202.312 19.3094C203.458 19.8756 204.665 20.1056 205.937 19.95C207.587 19.7486 208.962 19.017 210.045 17.7574C211.063 16.5712 211.558 15.1789 211.567 13.6226C211.58 11.3962 211.571 9.17004 211.572 6.94358C211.572 6.89068 211.542 6.81521 211.6 6.78837C211.646 6.76756 211.692 6.82824 211.735 6.85646C212.563 7.40072 213.457 7.79438 214.424 8.01554C214.988 8.1443 215.556 8.22259 216.135 8.22189C216.318 8.22154 216.343 8.21238 216.343 8.0314C216.344 7.24058 216.302 5.07939 216.303 4.86952Z" fill="white"/>
<path d="M105.328 8.4686L112.614 0H110.887L104.561 7.35317L99.509 0H93.6816L101.322 11.1193L93.6816 19.9999H95.4081L102.088 12.2347L107.424 19.9999H113.252L105.328 8.4686ZM102.964 11.2173L102.19 10.11L96.0302 1.29967H98.682L103.653 8.40991L104.427 9.51714L110.888 18.7594H108.236L102.964 11.2173Z" fill="white"/>
</g>
</svg>
