<svg width="15" height="15" viewBox="0 0 15 15" fill="none" xmlns="http://www.w3.org/2000/svg">
<path d="M7.5 1.25C4.04822 1.25 1.25 4.04822 1.25 7.5C1.25 10.9518 4.04822 13.75 7.5 13.75C10.9518 13.75 13.75 10.9518 13.75 7.5C13.75 4.04822 10.9518 1.25 7.5 1.25ZM7.5 12.5C4.73858 12.5 2.5 10.2614 2.5 7.5C2.5 4.73858 4.73858 2.5 7.5 2.5C10.2614 2.5 12.5 4.73858 12.5 7.5C12.5 10.2614 10.2614 12.5 7.5 12.5Z" fill="white"/>
<circle cx="7.5" cy="5" r="0.625" fill="white"/>
<path d="M7.5 6.25C7.15482 6.25 6.875 6.52982 6.875 6.875V10C6.875 10.3452 7.15482 10.625 7.5 10.625C7.84518 10.625 8.125 10.3452 8.125 10V6.875C8.125 6.52982 7.84518 6.25 7.5 6.25Z" fill="white"/>
</svg>
