<svg width="469" height="236" viewBox="0 0 469 236" fill="none" xmlns="http://www.w3.org/2000/svg">
<path d="M160.602 0.477173V43.2756H184.914V38.4091H166.396V0.477173H160.602Z" fill="black"/>
<path d="M200.628 0.477173V43.2756H227V38.5568H206.452V23.9521H223.088V19.4124H206.452V5.19607H227V0.477173H200.628Z" fill="black"/>
<path d="M240.322 0.477173V5.34539H254.21V43.2756H260.004V5.34539H273.832V0.477173H240.322Z" fill="black"/>
<path d="M293.146 0.481934V9.21678L292.663 13.8854C292.603 14.5296 292.432 15.025 292.151 15.3764C291.87 15.7278 291.418 15.9035 290.795 15.9035C290.273 15.9035 289.867 15.7278 289.575 15.3764C289.284 15.025 289.078 14.5296 288.958 13.8854L288.476 9.21678V0.481934H293.146Z" fill="black"/>
<path d="M334.14 7.22884C333.959 7.53004 333.767 7.75427 333.567 7.90487C333.367 8.05715 333.104 8.13245 332.784 8.13245C332.441 8.13245 332.046 7.96009 331.595 7.61873C331.143 7.27904 330.57 6.90254 329.878 6.4909C329.185 6.07925 328.352 5.70275 327.378 5.36139C326.402 5.02003 325.224 4.84935 323.839 4.84935C322.532 4.84935 321.379 5.02505 320.375 5.37645C319.369 5.72785 318.532 6.20476 317.86 6.80716C317.187 7.40789 316.678 8.11571 316.339 8.93063C315.997 9.74388 315.827 10.6207 315.827 11.5661C315.827 12.771 316.123 13.7699 316.715 14.5631C317.306 15.3546 318.091 16.034 319.065 16.5962C320.038 17.1585 321.143 17.6454 322.378 18.057C323.613 18.4687 324.878 18.8954 326.173 19.3355C327.468 19.7789 328.733 20.2759 329.968 20.8281C331.203 21.3803 332.307 22.0781 333.281 22.9215C334.255 23.7648 335.038 24.7989 335.631 26.0222C336.223 27.2487 336.519 28.7547 336.519 30.5419C336.519 32.4294 336.196 34.2015 335.555 35.8564C334.911 37.5147 333.974 38.9554 332.739 40.1786C331.504 41.4052 329.988 42.369 328.191 43.0718C326.394 43.7747 324.351 44.1261 322.062 44.1261C319.27 44.1261 316.725 43.619 314.426 42.605C312.127 41.5909 310.164 40.2205 308.538 38.4936L310.224 35.7208C310.385 35.5016 310.581 35.3159 310.812 35.1636C311.043 35.013 311.299 34.9394 311.58 34.9394C312.001 34.9394 312.483 35.1636 313.026 35.6171C313.568 36.0672 314.245 36.5642 315.059 37.1064C315.872 37.6502 316.854 38.1472 318.01 38.599C319.165 39.0508 320.576 39.275 322.242 39.275C323.628 39.275 324.863 39.0859 325.947 38.7044C327.031 38.3229 327.95 37.7858 328.703 37.093C329.456 36.4002 330.032 35.5702 330.435 34.6064C330.837 33.6442 331.037 32.5699 331.037 31.3852C331.037 30.08 330.741 29.0107 330.149 28.1774C329.556 27.3441 328.778 26.6463 327.815 26.0841C326.851 25.5218 325.751 25.0432 324.516 24.6534C323.281 24.2618 322.016 23.8585 320.721 23.4469C319.426 23.0369 318.161 22.56 316.926 22.0178C315.691 21.4757 314.592 20.7729 313.628 19.9094C312.664 19.046 311.886 17.9667 311.294 16.6715C310.701 15.3763 310.405 13.775 310.405 11.8657C310.405 10.3413 310.701 8.86537 311.294 7.43968C311.886 6.01232 312.743 4.74895 313.869 3.64287C314.993 2.54013 316.384 1.65661 318.041 0.992292C319.697 0.331322 321.598 0 323.748 0C326.158 0 328.357 0.381522 330.345 1.14289C332.333 1.90761 334.069 3.01034 335.555 4.45779L334.14 7.22884Z" fill="black"/>
<path d="M411.067 22.0781C411.067 25.311 410.553 28.2511 409.531 30.9016C408.505 33.5522 407.059 35.8229 405.19 37.7105C403.324 39.598 401.085 41.0588 398.475 42.093C395.866 43.1271 392.974 43.6441 389.8 43.6441H373.656V0.481934H389.8C392.974 0.481934 395.866 0.997323 398.475 2.03312C401.085 3.06725 403.324 4.5331 405.19 6.42899C407.059 8.32656 408.505 10.6023 409.531 13.2529C410.553 15.9035 411.067 18.8435 411.067 22.0781ZM405.073 22.0781C405.073 19.4275 404.71 17.0581 403.988 14.9697C403.266 12.8814 402.24 11.1127 400.916 9.66859C399.589 8.22282 397.984 7.11841 396.095 6.35537C394.209 5.59065 392.109 5.2108 389.8 5.2108H379.529V38.9153H389.8C392.109 38.9153 394.209 38.5338 396.095 37.7707C397.984 37.0077 399.589 35.9083 400.916 34.4709C402.24 33.0368 403.266 31.2748 403.988 29.1865C404.71 27.0981 405.073 24.7287 405.073 22.0781Z" fill="black"/>
<path d="M468.143 22.0781C468.143 25.311 467.631 28.2778 466.607 30.9769C465.583 33.6794 464.137 36.0036 462.269 37.9497C460.402 39.8975 458.158 41.4102 455.538 42.4828C452.917 43.5588 450.021 44.0943 446.848 44.0943C443.675 44.0943 440.784 43.5588 438.173 42.4828C435.563 41.4102 433.324 39.8975 431.456 37.9497C429.589 36.0036 428.143 33.6794 427.119 30.9769C426.095 28.2778 425.583 25.311 425.583 22.0781C425.583 18.8435 426.095 15.8784 427.119 13.1776C428.143 10.4751 429.589 8.14751 431.456 6.18969C433.324 4.23188 435.563 2.71082 438.173 1.62482C440.784 0.542163 443.675 0 446.848 0C450.021 0 452.917 0.542163 455.538 1.62482C458.158 2.71082 460.402 4.23188 462.269 6.18969C464.137 8.14751 465.583 10.4751 466.607 13.1776C467.631 15.8784 468.143 18.8435 468.143 22.0781ZM462.149 22.0781C462.149 19.4275 461.788 17.048 461.066 14.9379C460.342 12.8312 459.319 11.0491 457.994 9.59327C456.669 8.13747 455.061 7.018 453.173 6.2332C451.286 5.45008 449.177 5.06019 446.848 5.06019C444.54 5.06019 442.44 5.45008 440.553 6.2332C438.665 7.018 437.054 8.13747 435.718 9.59327C434.383 11.0491 433.354 12.8312 432.631 14.9379C431.908 17.048 431.547 19.4275 431.547 22.0781C431.547 24.7287 431.908 27.1031 432.631 29.2015C433.354 31.2999 434.383 33.077 435.718 34.5311C437.054 35.9886 438.665 37.103 440.553 37.8744C442.44 38.6475 444.54 39.0357 446.848 39.0357C449.177 39.0357 451.286 38.6475 453.173 37.8744C455.061 37.103 456.669 35.9886 457.994 34.5311C459.319 33.077 460.342 31.2999 461.066 29.2015C461.788 27.1031 462.149 24.7287 462.149 22.0781Z" fill="black"/>
<path d="M0 104.855V119.504H41.7913V233.645H59.2266V119.504H100.839V104.855H0Z" fill="black"/>
<path d="M234.645 104.855V162.283H165.262V104.855H147.737V233.645H165.262V175.046H234.645V233.645H252.17V104.855H234.645Z" fill="black"/>
<rect x="314.978" y="104.854" width="17.4353" height="128.79" fill="black"/>
<path d="M460.982 124.05C460.439 124.957 459.863 125.636 459.26 126.09C458.655 126.541 457.87 126.769 456.903 126.769C455.875 126.769 454.682 126.255 453.323 125.228C451.963 124.202 450.241 123.068 448.156 121.829C446.073 120.593 443.565 119.458 440.634 118.431C437.703 117.403 434.154 116.89 429.985 116.89C426.055 116.89 422.582 117.418 419.56 118.476C416.538 119.533 414.017 120.968 411.994 122.78C409.967 124.594 408.443 126.724 407.415 129.172C406.386 131.617 405.874 134.262 405.874 137.102C405.874 140.728 406.766 143.735 408.548 146.12C410.329 148.507 412.686 150.547 415.618 152.239C418.548 153.929 421.871 155.395 425.589 156.635C429.304 157.873 433.111 159.157 437.008 160.485C440.906 161.816 444.712 163.311 448.429 164.973C452.145 166.635 455.467 168.735 458.399 171.273C461.329 173.81 463.685 176.924 465.469 180.609C467.251 184.294 468.143 188.827 468.143 194.203C468.143 199.884 467.175 205.217 465.243 210.2C463.308 215.187 460.484 219.522 456.767 223.207C453.052 226.893 448.487 229.793 443.081 231.909C437.673 234.024 431.525 235.081 424.636 235.081C416.237 235.081 408.578 233.555 401.661 230.503C394.74 227.454 388.834 223.329 383.94 218.132L389.015 209.794C389.499 209.129 390.088 208.57 390.784 208.115C391.477 207.663 392.248 207.436 393.095 207.436C394.363 207.436 395.814 208.115 397.444 209.476C399.077 210.834 401.117 212.332 403.563 213.962C406.01 215.593 408.97 217.091 412.445 218.448C415.919 219.809 420.163 220.488 425.179 220.488C429.349 220.488 433.064 219.914 436.329 218.768C439.592 217.62 442.356 216.002 444.622 213.917C446.888 211.832 448.623 209.34 449.835 206.439C451.043 203.539 451.647 200.307 451.647 196.74C451.647 192.814 450.755 189.596 448.973 187.088C447.191 184.581 444.848 182.481 441.948 180.788C439.048 179.098 435.74 177.662 432.023 176.484C428.307 175.306 424.5 174.098 420.603 172.858C416.706 171.621 412.899 170.184 409.182 168.554C405.466 166.921 399.258 162.209 399.258 162.209C399.258 162.209 394.013 156.362 392.233 152.463C390.451 148.566 389.559 143.748 389.559 138.009C389.559 133.417 390.451 128.974 392.233 124.684C394.013 120.394 396.597 116.588 399.982 113.265C403.366 109.94 407.551 107.281 412.536 105.288C417.521 103.294 423.245 102.296 429.713 102.296C436.963 102.296 443.58 103.446 449.562 105.742C455.544 108.039 460.77 111.361 465.243 115.712L460.982 124.05Z" fill="black"/>
</svg>
