<svg width="73" height="73" viewBox="0 0 73 73" fill="none" xmlns="http://www.w3.org/2000/svg">
<path d="M0.5 10C0.5 4.7533 4.7533 0.5 10 0.5H63C68.2467 0.5 72.5 4.75329 72.5 10V63C72.5 68.2467 68.2467 72.5 63 72.5H10C4.7533 72.5 0.5 68.2467 0.5 63V10Z" stroke="white"/>
<path d="M35.7795 30.3179C35.05 31.0474 33.8673 31.0474 33.1379 30.3179C32.4084 29.5885 32.4084 28.4058 33.1379 27.6763L36.3117 24.5147C39.6814 21.1618 45.127 21.1618 48.4967 24.5147L48.5138 24.5342C51.8504 27.9058 51.8428 33.3376 48.4967 36.6997L45.3229 39.8613C44.5934 40.5908 43.4108 40.5908 42.6813 39.8613C41.9518 39.1319 41.9518 37.9492 42.6813 37.2197L45.8551 34.0459C47.7425 32.1362 47.7425 29.0636 45.8551 27.1539L45.8283 27.127C43.9148 25.2492 40.8477 25.2568 38.9435 27.1441L35.7819 30.3179H35.7795ZM39.1974 31.0894C39.9389 30.4432 41.0544 30.4827 41.7482 31.1798C42.4421 31.8768 42.4764 32.9925 41.8268 33.731L32.7302 42.8276C31.9961 43.5248 30.8402 43.5101 30.124 42.7946C29.4078 42.0791 29.3921 40.9232 30.0886 40.1885L39.1877 31.0894H39.1974ZM36.1603 43.7407C36.8951 43.0442 38.0509 43.06 38.7664 43.7761C39.482 44.4923 39.4966 45.6482 38.7995 46.3823L35.6989 49.4853C32.3434 52.8249 26.9247 52.8401 23.5505 49.5195L23.4822 49.4536C20.159 46.0789 20.1731 40.6576 23.5139 37.3003L26.6145 34.2071C27.0758 33.6944 27.7822 33.4777 28.4516 33.6434C29.1211 33.8092 29.6448 34.3304 29.8136 34.9991C29.9825 35.6678 29.769 36.3752 29.2585 36.8389L26.1555 39.9419C24.2662 41.8527 24.2662 44.928 26.1555 46.8388C28.0658 48.734 31.147 48.734 33.0573 46.8388L36.1603 43.7407Z" fill="white"/>
</svg>
