<svg width="15" height="20" viewBox="0 0 15 20" fill="none" xmlns="http://www.w3.org/2000/svg">
<path d="M7.5 0.328857C4.87205 0.328857 2.72728 2.73099 2.72728 5.6743V7.20158H1.36365C0.610245 7.20158 0 7.88503 0 8.72886V17.8925C0 18.7363 0.610245 19.4198 1.36365 19.4198H13.6364C14.3898 19.4198 15 18.7363 15 17.8925V8.72886C15 7.88503 14.3898 7.20158 13.6364 7.20158H12.2728V5.6743C12.2728 2.82717 10.2522 0.533962 7.74235 0.384037C7.66525 0.34927 7.58308 0.330559 7.5 0.328857ZM7.5 1.85612C9.39116 1.85612 10.9091 3.55624 10.9091 5.6743V7.20158H4.09093V5.6743C4.09093 3.55624 5.60886 1.85612 7.5 1.85612Z" fill="white"/>
</svg>
