<svg width="148" height="50" viewBox="0 0 148 50" fill="none" xmlns="http://www.w3.org/2000/svg">
<path d="M37.0321 0V1.23691C37.0321 1.73123 36.8666 2.21467 36.5377 2.68505L4.80608 46.997H36.7501V50H0V48.6934C0 48.2448 0.141547 47.8213 0.423553 47.4217L32.226 3.00407H0.918969V0H37.0321Z" fill="black"/>
<path d="M80.9303 -0.00012207V3.07472H63.3686V49.9999H59.7635V3.07472H42.0962V-0.00012207H80.9303Z" fill="black"/>
<rect x="85.9944" y="24.0284" width="22.0596" height="3.00298" fill="black"/>
<rect x="85.9944" y="0.000244141" width="25.5929" height="3.00407" fill="black"/>
<path d="M129.961 28.3748C129.513 27.7858 129.006 27.3143 128.441 26.9615C130.632 26.7263 132.6 26.2255 134.343 25.46C136.086 24.6946 137.575 23.7168 138.812 22.5267C140.049 21.3377 140.997 19.9538 141.657 18.375C142.316 16.7973 142.646 15.0541 142.646 13.1454C142.646 8.83365 141.221 5.56608 138.37 3.33943C135.52 1.11387 131.209 0 125.438 0H116.65V2.86252H125.438C129.891 2.86252 133.282 3.7227 135.614 5.44195C137.947 7.1623 139.113 9.80053 139.113 13.3577C139.113 15.1009 138.795 16.6678 138.159 18.0571C137.523 19.4475 136.598 20.6365 135.385 21.6263C134.171 22.6149 132.688 23.3749 130.933 23.9052C129.177 24.4354 127.193 24.7 124.979 24.7H116.65V27.3851H122.823C123.789 27.3851 124.502 27.4918 124.96 27.7041C125.421 27.9153 125.85 28.2812 126.251 28.7995L142.257 49.0821C142.517 49.412 142.782 49.6472 143.053 49.7888C143.323 49.9292 143.648 50 144.023 50H147.169L129.961 28.3748Z" fill="black"/>
</svg>
