<svg width="73" height="74" viewBox="0 0 73 74" fill="none" xmlns="http://www.w3.org/2000/svg">
<path d="M10 0.617188H63C68.2467 0.617188 72.5 4.87048 72.5 10.1172V63.1172C72.5 68.3639 68.2467 72.6172 63 72.6172H10C4.7533 72.6172 0.5 68.3639 0.5 63.1172V10.1172C0.5 4.87048 4.75329 0.617188 10 0.617188Z" stroke="white"/>
<path d="M19 31.1169C19 26.9169 19 24.8169 19.8173 23.2122C20.5365 21.8017 21.6845 20.6537 23.095 19.9344C24.6997 19.1172 26.7997 19.1172 30.9998 19.1172H42.0002C46.2003 19.1172 48.3003 19.1172 49.905 19.9344C51.3155 20.6537 52.4635 21.8017 53.1828 23.2122C54 24.8169 54 26.9169 54 31.1169V42.1174C54 46.3174 54 48.4174 53.1828 50.0222C52.4635 51.4327 51.3155 52.5807 49.905 53.2999C48.3003 54.1172 46.2003 54.1172 42.0002 54.1172H30.9998C26.7997 54.1172 24.6997 54.1172 23.095 53.2999C21.6845 52.5807 20.5365 51.4327 19.8173 50.0222C19 48.4174 19 46.3174 19 42.1174V31.1169Z" fill="white"/>
<path d="M36.4998 45.3672C42.7123 45.3672 47.7505 41.1672 47.7505 35.9924C47.7505 30.8177 42.7123 26.6177 36.4998 26.6177C30.2873 26.6177 25.249 30.8177 25.249 35.9924C25.368 39.3454 27.3245 42.3607 30.3363 43.8377C30.2435 44.8964 29.7675 45.8852 28.9993 46.6184C30.5008 46.3664 31.9305 45.7994 33.1993 44.9577C34.2773 45.2307 35.3868 45.3689 36.4998 45.3672Z" fill="black"/>
</svg>
