<svg width="8" height="26" viewBox="0 0 8 26" fill="none" xmlns="http://www.w3.org/2000/svg">
<path d="M0.646973 3.85363C0.646973 5.70594 2.14829 7.20726 4.0006 7.20726C5.85208 7.20726 7.3534 5.70594 7.3534 3.85363C7.3534 2.00131 5.85208 0.5 4.0006 0.5C2.14829 0.5 0.646973 2.00131 0.646973 3.85363Z" fill="white"/>
<path d="M0.646973 22.1464C0.646973 23.9987 2.14829 25.5 4.0006 25.5C5.85208 25.5 7.3534 23.9987 7.3534 22.1464C7.3534 20.294 5.85208 18.7927 4.0006 18.7927C2.14829 18.7927 0.646973 20.294 0.646973 22.1464Z" fill="white"/>
<path d="M0.646973 12.9996C0.646973 14.8519 2.14829 16.3533 4.0006 16.3533C5.85208 16.3533 7.3534 14.8519 7.3534 12.9996C7.3534 11.1473 5.85208 9.646 4.0006 9.646C2.14829 9.646 0.646973 11.1473 0.646973 12.9996Z" fill="white"/>
</svg>
