<svg width="15" height="16" viewBox="0 0 15 16" fill="none" xmlns="http://www.w3.org/2000/svg">
<path fill-rule="evenodd" clip-rule="evenodd" d="M11.9575 0.27412L14.7259 3.04248C15.0914 3.40798 15.0914 4.00561 14.7259 4.3711L13.1948 5.90222L9.09778 1.80524L10.6289 0.27412C10.9944 -0.0913733 11.592 -0.0913733 11.9575 0.27412ZM8.66561 6.44429V6.44552C8.77921 6.55912 8.83601 6.70976 8.83601 6.85794C8.83601 7.00611 8.77921 7.15552 8.66561 7.27035V7.27159L8.66437 7.27282L4.95017 10.9883H4.94894C4.91683 11.0204 4.88102 11.0475 4.84521 11.071H4.84398C4.80694 11.0944 4.76866 11.113 4.72915 11.1266C4.52417 11.1982 4.28586 11.1512 4.12287 10.9883H4.12164V10.987C4.08953 10.9549 4.06237 10.9191 4.03891 10.8833V10.8821C4.01545 10.845 3.99693 10.8067 3.98334 10.7672C3.91173 10.5623 3.95865 10.3239 4.1204 10.161V10.1597L7.83584 6.44429H7.83707C7.95067 6.33069 8.10132 6.27389 8.24949 6.27389C8.39766 6.27389 8.54707 6.33069 8.6619 6.44429H8.66561ZM5.61571 13.4726C4.50689 13.8159 3.39929 14.1579 2.29047 14.5012C-0.314907 15.3075 -0.303794 15.8446 0.407436 13.3356L1.52738 9.38429L1.52367 9.38058L8.32234 2.58068L12.4193 6.67766L5.61942 13.4776L5.61571 13.4726ZM2.22626 10.0832L4.91683 12.7737C4.18831 12.9985 3.4598 13.2232 2.73252 13.4467C1.02112 13.9739 1.02853 14.3271 1.49404 12.6787L2.22626 10.0832Z" fill="white"/>
</svg>
