<svg width="22" height="27" viewBox="0 0 22 27" fill="none" xmlns="http://www.w3.org/2000/svg">
<path d="M11.2929 14.2353C7.64412 14.2353 4.67529 11.2665 4.67529 7.61757C4.67529 3.96881 7.64412 1 11.2929 1C14.9418 1 17.9106 3.96881 17.9106 7.61757C17.9106 11.2665 14.9418 14.2353 11.2929 14.2353ZM11.2929 2.47063C8.45479 2.47063 6.14594 4.7795 6.14594 7.61757C6.14594 10.4558 8.45479 12.7647 11.2929 12.7647C14.1311 12.7647 16.44 10.4558 16.44 7.61757C16.44 4.7795 14.1311 2.47063 11.2929 2.47063Z" fill="white" stroke="white" stroke-width="0.5"/>
<path d="M20.8519 26C20.4459 26 20.1167 25.6706 20.1167 25.2646C20.1167 20.3996 16.1583 16.4412 11.2931 16.4412C6.67572 16.4412 2.8749 20.0072 2.50021 24.5294H17.1754C17.5814 24.5294 17.9108 24.8586 17.9108 25.2646C17.9108 25.6706 17.5814 26 17.1754 26H0.999023V25.2646C0.999023 19.5885 5.61694 14.9706 11.2931 14.9706C16.9694 14.9706 21.5873 19.5885 21.5873 25.2646C21.5873 25.6706 21.2579 26 20.8519 26Z" fill="white" stroke="white" stroke-width="0.5"/>
</svg>
