<svg width="73" height="74" viewBox="0 0 73 74" fill="none" xmlns="http://www.w3.org/2000/svg">
<path d="M0.5 10.1172C0.5 4.87048 4.7533 0.617188 10 0.617188H63C68.2467 0.617188 72.5 4.87048 72.5 10.1172V63.1172C72.5 68.3639 68.2467 72.6172 63 72.6172H10C4.7533 72.6172 0.5 68.3639 0.5 63.1172V10.1172Z" stroke="white"/>
<path d="M48.7667 24.2034C45.4911 20.9251 41.1353 19.1189 36.4942 19.1172C26.9317 19.1172 19.1492 26.8969 19.1453 36.4592C19.144 39.5161 19.9429 42.4999 21.4612 45.1298L19 54.1172L28.1967 51.7054C30.7307 53.0871 33.5836 53.8152 36.4873 53.8162H36.4944C46.0559 53.8162 53.8395 46.0358 53.8432 36.4731C53.845 31.8391 52.0421 27.4817 48.7667 24.2034ZM36.4944 50.8874H36.4886C33.9012 50.8863 31.3631 50.1913 29.1494 48.8779L28.6227 48.5656L23.1652 49.9968L24.622 44.6773L24.2789 44.132C22.8356 41.8369 22.0733 39.1841 22.0745 36.4605C22.0775 28.5125 28.5462 22.0462 36.5 22.0462C40.3513 22.0477 43.9719 23.5491 46.6943 26.274C49.4169 28.9985 50.9155 32.6203 50.914 36.472C50.9107 44.4208 44.4421 50.8874 36.4944 50.8874ZM44.4041 40.0909C43.9704 39.8742 41.8391 38.826 41.4419 38.6812C41.0444 38.5366 40.7555 38.4643 40.4664 38.8982C40.1774 39.3319 39.3469 40.3079 39.0938 40.5974C38.841 40.8864 38.5881 40.9227 38.1547 40.7057C37.7211 40.4888 36.3245 40.0313 34.6686 38.5549C33.3799 37.4059 32.5099 35.9868 32.2571 35.5529C32.0043 35.119 32.2302 34.8846 32.4473 34.6684C32.6422 34.4742 32.8806 34.1624 33.0976 33.9093C33.3141 33.6562 33.3865 33.4753 33.5311 33.1862C33.6755 32.8969 33.6033 32.6439 33.4948 32.4272C33.3865 32.2099 32.5195 30.0769 32.1582 29.2093C31.8064 28.3643 31.449 28.4787 31.1829 28.4655C30.9303 28.4528 30.6412 28.4501 30.3521 28.4501C30.0632 28.4501 29.5935 28.5587 29.1962 28.9926C28.7989 29.4263 27.6789 30.4747 27.6789 32.6078C27.6789 34.7408 29.2323 36.8015 29.4492 37.0906C29.6658 37.3799 32.5058 41.757 36.8542 43.634C37.8884 44.0807 38.6958 44.3471 39.3255 44.5469C40.3641 44.8767 41.3088 44.8303 42.0559 44.7186C42.8887 44.5942 44.6204 43.6702 44.9819 42.658C45.3431 41.6456 45.3431 40.7779 45.2347 40.5974C45.1262 40.4166 44.8373 40.3082 44.4041 40.0909Z" fill="white"/>
</svg>
