<svg width="15" height="16" viewBox="0 0 15 16" fill="none" xmlns="http://www.w3.org/2000/svg">
<path d="M12.8145 2.79218C11.4045 1.38089 9.52927 0.603302 7.53128 0.602539C3.41464 0.602539 0.0643005 3.95172 0.0625916 8.06833C0.0620422 9.38431 0.405945 10.6688 1.05957 11.801L0 15.67L3.95923 14.6318C5.05011 15.2266 6.27826 15.5401 7.52832 15.5405H7.53137C11.6476 15.5405 14.9984 12.191 15 8.07425C15.0008 6.07938 14.2247 4.20346 12.8145 2.79218ZM7.53137 14.2796H7.5289C6.41498 14.2791 5.32236 13.98 4.36935 13.4146L4.14261 13.2801L1.79315 13.8962L2.42032 11.6062L2.27258 11.3714C1.65125 10.3834 1.32312 9.24139 1.32361 8.06885C1.32489 4.64725 4.10965 1.86349 7.53378 1.86349C9.19177 1.86417 10.7504 2.51053 11.9224 3.68356C13.0945 4.85648 13.7397 6.41562 13.739 8.07382C13.7376 11.4957 10.9528 14.2796 7.53137 14.2796ZM10.9365 9.63177C10.7498 9.53848 9.83224 9.08722 9.66122 9.02484C9.49017 8.96265 9.36578 8.93149 9.2413 9.11826C9.11691 9.30496 8.7594 9.72519 8.65036 9.84976C8.5416 9.97421 8.43274 9.98984 8.24612 9.89645C8.05942 9.80304 7.45819 9.60608 6.74536 8.97049C6.19061 8.47586 5.81607 7.86493 5.70721 7.67813C5.59839 7.49133 5.69562 7.39041 5.78909 7.29736C5.87302 7.21381 5.97565 7.0795 6.06906 6.97058C6.16226 6.8616 6.19342 6.78375 6.25565 6.6593C6.31781 6.53473 6.28674 6.42578 6.24005 6.33249C6.19342 6.23898 5.82016 5.32074 5.66461 4.9472C5.51318 4.58344 5.35931 4.63272 5.24475 4.62698C5.13602 4.62155 5.01154 4.62039 4.88712 4.62039C4.76276 4.62039 4.56052 4.66714 4.3895 4.85391C4.21841 5.04062 3.7363 5.49197 3.7363 6.41028C3.7363 7.32852 4.40506 8.21564 4.49838 8.34012C4.59167 8.46466 5.8143 10.349 7.68625 11.157C8.13147 11.3493 8.47906 11.4641 8.75015 11.55C9.19727 11.692 9.60397 11.672 9.92557 11.6239C10.2841 11.5704 11.0296 11.1726 11.1852 10.7368C11.3407 10.301 11.3407 9.92752 11.2941 9.84976C11.2474 9.77194 11.123 9.72528 10.9365 9.63177Z" fill="white"/>
</svg>
