<svg width="73" height="74" viewBox="0 0 73 74" fill="none" xmlns="http://www.w3.org/2000/svg">
<path d="M0.5 10.1182C0.5 4.87146 4.7533 0.618164 10 0.618164H63C68.2467 0.618164 72.5 4.87146 72.5 10.1182V63.1182C72.5 68.3649 68.2467 72.6182 63 72.6182H10C4.7533 72.6182 0.5 68.3649 0.5 63.1182V10.1182Z" stroke="white"/>
<path d="M39.3819 33.9383L52.1312 19.1182H49.11L38.0398 31.9863L29.198 19.1182H19L32.3705 38.577L19 54.1182H22.0214L33.7119 40.529L43.0494 54.1182H53.2474L39.3819 33.9383ZM35.2437 38.7484L33.889 36.8108L23.11 21.3926H27.7506L36.4494 33.8356L37.8041 35.7732L49.1115 51.9472H44.4708L35.2437 38.7484Z" fill="white"/>
</svg>
