<svg width="209" height="23" viewBox="0 0 209 23" fill="none" xmlns="http://www.w3.org/2000/svg">
<path d="M10.77 13.45V22H7.875V13.45L0 0.505016H2.55C2.81 0.505016 3.015 0.570017 3.165 0.700016C3.315 0.830017 3.445 0.990017 3.555 1.18002L8.475 9.53502C8.675 9.88502 8.8425 10.215 8.9775 10.525C9.1125 10.835 9.235 11.14 9.345 11.44C9.455 11.13 9.575 10.82 9.705 10.51C9.835 10.2 10 9.87502 10.2 9.53502L15.105 1.18002C15.195 1.02002 15.3175 0.867517 15.4725 0.722517C15.6275 0.577517 15.83 0.505016 16.08 0.505016H18.66L10.77 13.45ZM44.625 11.26C44.625 12.87 44.37 14.3475 43.86 15.6925C43.35 17.0375 42.63 18.195 41.7 19.165C40.77 20.135 39.6525 20.8875 38.3475 21.4225C37.0425 21.9575 35.6 22.225 34.02 22.225C32.44 22.225 31 21.9575 29.7 21.4225C28.4 20.8875 27.285 20.135 26.355 19.165C25.425 18.195 24.705 17.0375 24.195 15.6925C23.685 14.3475 23.43 12.87 23.43 11.26C23.43 9.65002 23.685 8.17252 24.195 6.82752C24.705 5.48252 25.425 4.32252 26.355 3.34752C27.285 2.37251 28.4 1.61502 29.7 1.07502C31 0.535017 32.44 0.265017 34.02 0.265015C35.6 0.265015 37.0425 0.535015 38.3475 1.07502C39.6525 1.61502 40.77 2.37252 41.7 3.34752C42.63 4.32252 43.35 5.48252 43.86 6.82752C44.37 8.17252 44.625 9.65002 44.625 11.26ZM41.64 11.26C41.64 9.94002 41.46 8.75502 41.1 7.70502C40.74 6.65502 40.23 5.76752 39.57 5.04252C38.91 4.31752 38.11 3.76002 37.17 3.37002C36.23 2.98002 35.18 2.78502 34.02 2.78502C32.87 2.78502 31.825 2.98002 30.885 3.37002C29.945 3.76002 29.1425 4.31752 28.4775 5.04252C27.8125 5.76752 27.3 6.65502 26.94 7.70502C26.58 8.75502 26.4 9.94002 26.4 11.26C26.4 12.58 26.58 13.7625 26.94 14.8075C27.3 15.8525 27.8125 16.7375 28.4775 17.4625C29.1425 18.1875 29.945 18.7425 30.885 19.1275C31.825 19.5125 32.87 19.705 34.02 19.705C35.18 19.705 36.23 19.5125 37.17 19.1275C38.11 18.7425 38.91 18.1875 39.57 17.4625C40.23 16.7375 40.74 15.8525 41.1 14.8075C41.46 13.7625 41.64 12.58 41.64 11.26ZM61.455 19.69C62.345 19.69 63.14 19.54 63.84 19.24C64.54 18.94 65.1325 18.52 65.6175 17.98C66.1025 17.44 66.4725 16.795 66.7275 16.045C66.9825 15.295 67.11 14.47 67.11 13.57V0.505016H70.005V13.57C70.005 14.81 69.8075 15.96 69.4125 17.02C69.0175 18.08 68.4525 18.9975 67.7175 19.7725C66.9825 20.5475 66.085 21.155 65.025 21.595C63.965 22.035 62.775 22.255 61.455 22.255C60.135 22.255 58.945 22.035 57.885 21.595C56.825 21.155 55.925 20.5475 55.185 19.7725C54.445 18.9975 53.8775 18.08 53.4825 17.02C53.0875 15.96 52.89 14.81 52.89 13.57V0.505016H55.785V13.555C55.785 14.455 55.9125 15.28 56.1675 16.03C56.4225 16.78 56.7925 17.425 57.2775 17.965C57.7625 18.505 58.3575 18.9275 59.0625 19.2325C59.7675 19.5375 60.565 19.69 61.455 19.69ZM108.42 11.26C108.42 12.87 108.165 14.335 107.655 15.655C107.145 16.975 106.425 18.105 105.495 19.045C104.565 19.985 103.45 20.7125 102.15 21.2275C100.85 21.7425 99.41 22 97.83 22H89.79V0.505016H97.83C99.41 0.505016 100.85 0.762516 102.15 1.27752C103.45 1.79251 104.565 2.52251 105.495 3.46752C106.425 4.41252 107.145 5.54502 107.655 6.86502C108.165 8.18502 108.42 9.65002 108.42 11.26ZM105.435 11.26C105.435 9.94002 105.255 8.76002 104.895 7.72002C104.535 6.68002 104.025 5.80002 103.365 5.08002C102.705 4.36002 101.905 3.81002 100.965 3.43002C100.025 3.05002 98.98 2.86002 97.83 2.86002H92.715V19.645H97.83C98.98 19.645 100.025 19.455 100.965 19.075C101.905 18.695 102.705 18.1475 103.365 17.4325C104.025 16.7175 104.535 15.84 104.895 14.8C105.255 13.76 105.435 12.58 105.435 11.26ZM120.33 22H117.42V0.505016H120.33V22ZM149.22 11.26C149.22 12.87 148.965 14.335 148.455 15.655C147.945 16.975 147.225 18.105 146.295 19.045C145.365 19.985 144.25 20.7125 142.95 21.2275C141.65 21.7425 140.21 22 138.63 22H130.59V0.505016H138.63C140.21 0.505016 141.65 0.762516 142.95 1.27752C144.25 1.79251 145.365 2.52251 146.295 3.46752C147.225 4.41252 147.945 5.54502 148.455 6.86502C148.965 8.18502 149.22 9.65002 149.22 11.26ZM146.235 11.26C146.235 9.94002 146.055 8.76002 145.695 7.72002C145.335 6.68002 144.825 5.80002 144.165 5.08002C143.505 4.36002 142.705 3.81002 141.765 3.43002C140.825 3.05002 139.78 2.86002 138.63 2.86002H133.515V19.645H138.63C139.78 19.645 140.825 19.455 141.765 19.075C142.705 18.695 143.505 18.1475 144.165 17.4325C144.825 16.7175 145.335 15.84 145.695 14.8C146.055 13.76 146.235 12.58 146.235 11.26ZM171.42 22H168.51V0.505016H171.42V22ZM196.32 0.505016V2.95002H189.375V22H186.465V2.95002H179.49V0.505016H196.32ZM207.72 0.505016V9.08502C207.72 9.53502 207.713 9.97502 207.698 10.405C207.683 10.835 207.66 11.2675 207.63 11.7025C207.6 12.1375 207.562 12.5825 207.518 13.0375C207.473 13.4925 207.42 13.98 207.36 14.5H205.545C205.485 13.98 205.433 13.4925 205.388 13.0375C205.343 12.5825 205.305 12.1375 205.275 11.7025C205.245 11.2675 205.223 10.835 205.208 10.405C205.193 9.97502 205.185 9.53502 205.185 9.08502V0.505016H207.72ZM204.54 20.35C204.54 20.09 204.588 19.845 204.683 19.615C204.778 19.385 204.908 19.185 205.073 19.015C205.238 18.845 205.435 18.71 205.665 18.61C205.895 18.51 206.14 18.46 206.4 18.46C206.66 18.46 206.905 18.51 207.135 18.61C207.365 18.71 207.565 18.845 207.735 19.015C207.905 19.185 208.038 19.385 208.133 19.615C208.228 19.845 208.275 20.09 208.275 20.35C208.275 20.62 208.228 20.8675 208.133 21.0925C208.038 21.3175 207.905 21.515 207.735 21.685C207.565 21.855 207.365 21.9875 207.135 22.0825C206.905 22.1775 206.66 22.225 206.4 22.225C206.14 22.225 205.895 22.1775 205.665 22.0825C205.435 21.9875 205.238 21.855 205.073 21.685C204.908 21.515 204.777 21.3175 204.683 21.0925C204.588 20.8675 204.54 20.62 204.54 20.35Z" fill="white"/>
</svg>
