<svg width="177" height="130" viewBox="0 0 177 130" fill="none" xmlns="http://www.w3.org/2000/svg">
<path d="M162.683 0.000244141L61.2006 101.482L13.9433 54.2164L0.000732422 68.1606L61.2006 129.362L176.625 13.9378L162.683 0.000244141Z" fill="white"/>
<path d="M20.7347 66.2191L20.5215 66.4323C20.4299 66.5206 20.3133 66.5789 20.1867 66.5972L7.07195 68.7624L12.5833 74.2738L12.0653 74.7918L5.72949 68.456L5.95435 68.2311C6.03429 68.1528 6.13589 68.1012 6.24582 68.0845L19.3889 65.9093L13.9907 60.5112L14.5087 59.9932L20.7347 66.2191Z" fill="black"/>
<path d="M28.3045 73.7886L27.7748 74.3183L24.7468 71.2903L16.6554 79.3816L16.0342 78.7604L24.1239 70.669L21.0792 67.6227L21.6089 67.093L28.3045 73.7886Z" fill="black"/>
<rect x="24.8101" y="83.9966" width="1" height="5.37992" transform="rotate(-45 24.8101 83.9966)" fill="black"/>
<rect x="28.9529" y="80.7153" width="1" height="6.24143" transform="rotate(-45 28.9529 80.7153)" fill="black"/>
<path d="M31.8676 87.1352C31.8926 86.967 31.8859 86.7954 31.8493 86.6289C32.2323 86.9453 32.6637 87.2018 33.1251 87.3867C33.5315 87.5499 33.9629 87.6399 34.4009 87.6515C34.814 87.6615 35.2254 87.5849 35.6085 87.4267C36.0115 87.2568 36.3763 87.0086 36.6811 86.6955C37.3723 86.0876 37.7287 85.1832 37.6355 84.2671C37.4056 83.1761 36.8243 82.1918 35.9799 81.4639L34.4642 79.9482L33.9712 80.4413L35.4869 81.9569C36.1431 82.5349 36.5995 83.306 36.791 84.1588C36.8826 84.9017 36.5961 85.6395 36.0299 86.1275C35.755 86.4107 35.4219 86.6305 35.0538 86.7721C34.7057 86.902 34.331 86.9503 33.9612 86.9104C33.5531 86.862 33.1584 86.7355 32.7986 86.5356C32.3706 86.2974 31.9775 85.9976 31.6361 85.6462L30.2003 84.2104L29.7373 84.6718L30.7966 85.7328C30.9299 85.851 31.0365 85.9959 31.1097 86.1558C31.1547 86.2891 31.1664 86.429 31.1447 86.5672L30.4069 92.8231C30.3969 92.9098 30.4035 92.9964 30.4269 93.0796C30.4535 93.1563 30.4985 93.2262 30.5584 93.2828L31.1014 93.8258L31.8676 87.1352Z" fill="black"/>
<path d="M92.6793 91.8705C93.0907 91.4574 93.3888 91.0144 93.5737 90.5447C93.7553 90.0733 93.8319 89.597 93.8036 89.1139C93.7753 88.6326 93.647 88.1579 93.4222 87.6915C93.1923 87.2252 92.8792 86.7905 92.4761 86.3891L87.1546 81.0659L87.7759 80.4463L93.099 85.7695C93.5737 86.2442 93.9418 86.7622 94.2016 87.3235C94.4632 87.8848 94.6064 88.4594 94.6297 89.0473C94.6547 89.6353 94.5548 90.2182 94.3249 90.7978C94.0934 91.3741 93.7286 91.9154 93.2256 92.4184C92.7226 92.9215 92.183 93.2862 91.6067 93.5161C91.0271 93.7442 90.4424 93.8475 89.8545 93.8225C89.2682 93.7992 88.6919 93.656 88.1306 93.3945C87.5693 93.133 87.0513 92.7649 86.5766 92.2902L81.2551 86.967L81.8797 86.3408L87.1979 91.6573C87.5976 92.0587 88.0324 92.3735 88.4987 92.6C88.9667 92.8282 89.4381 92.9564 89.9195 92.9864C90.4008 93.0164 90.8772 92.9414 91.3502 92.7616C91.8215 92.5817 92.2663 92.2835 92.6793 91.8705Z" fill="black"/>
<path d="M98.6338 79.8698L102.1 83.3359L101.48 83.9572L92.8726 75.3495L95.0928 73.1293C96.1021 72.1183 97.0848 71.5786 98.0408 71.5086C98.9952 71.437 99.883 71.8101 100.701 72.6296C101.079 73.0077 101.355 73.4241 101.532 73.8804C101.708 74.3368 101.78 74.8115 101.745 75.3028C101.71 75.7958 101.569 76.2955 101.319 76.8002C101.071 77.3049 100.707 77.7945 100.233 78.2692L98.6338 79.8698ZM98.1341 79.3702L99.7347 77.7696C100.114 77.3898 100.403 76.9967 100.599 76.5903C100.792 76.1839 100.901 75.7842 100.924 75.3878C100.946 74.993 100.886 74.6133 100.744 74.2485C100.603 73.8838 100.381 73.5506 100.081 73.2508C99.4199 72.5896 98.7071 72.2848 97.9426 72.3348C97.1781 72.3864 96.3919 72.8145 95.5858 73.6223L93.9852 75.2212L98.1341 79.3702Z" fill="black"/>
<path d="M111.043 73.3359L115.126 69.2535L115.654 69.7832L110.952 74.4851L102.344 65.8774L102.965 65.2578L111.043 73.3359Z" fill="black"/>
<path d="M122.491 54.3315C123.158 54.9961 123.661 55.699 124.004 56.4385C124.345 57.1797 124.528 57.9209 124.55 58.6654C124.573 59.4099 124.437 60.1377 124.144 60.8489C123.851 61.5618 123.396 62.223 122.785 62.8343C122.18 63.4389 121.522 63.8886 120.809 64.1818C120.098 64.4766 119.37 64.6131 118.626 64.5898C117.881 64.5682 117.138 64.3866 116.397 64.0452C115.654 63.7054 114.951 63.2024 114.285 62.5378C113.624 61.8766 113.124 61.1737 112.783 60.4325C112.443 59.6897 112.262 58.9468 112.24 58.2023C112.217 57.4595 112.351 56.73 112.643 56.0154C112.936 55.3026 113.384 54.643 113.989 54.0384C114.6 53.4271 115.263 52.9741 115.974 52.6793C116.685 52.3861 117.415 52.2512 118.161 52.2746C118.907 52.2995 119.65 52.4827 120.391 52.8259C121.131 53.169 121.83 53.6703 122.491 54.3315ZM121.847 54.9761C121.247 54.3765 120.624 53.9201 119.98 53.607C119.335 53.2955 118.696 53.124 118.061 53.094C117.426 53.0624 116.807 53.1723 116.206 53.4221C115.603 53.672 115.041 54.055 114.523 54.5747C114.012 55.086 113.632 55.6407 113.386 56.242C113.138 56.8416 113.028 57.4612 113.054 58.0991C113.081 58.7386 113.249 59.3816 113.559 60.0278C113.869 60.674 114.325 61.2986 114.925 61.8982C115.529 62.5028 116.154 62.9592 116.799 63.2674C117.443 63.5755 118.084 63.742 118.724 63.7687C119.362 63.7953 119.98 63.6837 120.579 63.4339C121.177 63.1857 121.732 62.806 122.243 62.2947C122.761 61.775 123.148 61.2154 123.398 60.6141C123.649 60.0145 123.761 59.3966 123.729 58.762C123.699 58.1274 123.529 57.4895 123.219 56.8466C122.908 56.2036 122.452 55.5807 121.847 54.9761Z" fill="black"/>
<path d="M137.553 47.8826L137.072 48.364C137.017 48.4206 136.954 48.4522 136.887 48.4589C136.82 48.4639 136.752 48.4539 136.684 48.4239L133.168 46.9399L128.941 51.1688L130.43 54.6782C130.458 54.7381 130.468 54.8064 130.461 54.8797C130.453 54.9513 130.42 55.0163 130.363 55.0729L129.888 55.5476L124.803 43.4189L125.423 42.7976L137.553 47.8826ZM128.666 50.5176L132.523 46.6601L126.416 44.0684C126.317 44.0285 126.211 43.9785 126.096 43.9202C125.981 43.8619 125.859 43.797 125.734 43.7287C125.803 43.8536 125.868 43.9752 125.926 44.0901C125.984 44.2067 126.036 44.3149 126.081 44.4149L128.666 50.5176Z" fill="black"/>
<path d="M144.287 32.536C144.952 33.2022 145.45 33.9001 145.783 34.6296C146.116 35.3591 146.288 36.092 146.299 36.8248C146.313 37.5594 146.166 38.2772 145.861 38.9784C145.558 39.6813 145.102 40.3375 144.487 40.9505L141.347 44.0884L132.74 35.4807L135.879 32.3428C136.494 31.7298 137.149 31.2718 137.85 30.9687C138.554 30.6639 139.272 30.5173 140.003 30.529C140.738 30.5423 141.471 30.7138 142.2 31.0453C142.93 31.3801 143.626 31.8764 144.287 32.536ZM143.643 33.1822C143.043 32.5826 142.422 32.1296 141.787 31.8248C141.149 31.5216 140.52 31.3584 139.892 31.3351C139.265 31.3134 138.653 31.43 138.056 31.6849C137.46 31.9414 136.904 32.3278 136.384 32.8474L133.872 35.3591L141.471 42.9575L143.982 40.4458C144.502 39.9261 144.888 39.3682 145.143 38.7719C145.401 38.1756 145.518 37.5644 145.495 36.9381C145.471 36.3118 145.31 35.6789 145.005 35.0427C144.699 34.4064 144.246 33.7868 143.643 33.1822Z" fill="black"/>
<path d="M149.578 18.6431L150.096 19.1611L145.564 23.6914L149.044 27.1725L152.815 23.4L153.319 23.9046L149.548 27.6771L153.138 31.2665L157.67 26.7344L158.186 27.2508L153.028 32.4091L144.42 23.8014L149.578 18.6431Z" fill="black"/>
<path d="M165.592 11.2332C166.256 11.8995 166.754 12.5974 167.087 13.3269C167.42 14.0564 167.592 14.7893 167.604 15.5221C167.617 16.2566 167.47 16.9745 167.166 17.6757C166.862 18.3786 166.404 19.0348 165.792 19.6461L162.652 22.7857L154.044 14.178L157.184 11.0384C157.797 10.4271 158.453 9.96908 159.154 9.66594C159.857 9.36114 160.575 9.21457 161.308 9.22623C162.042 9.23956 162.773 9.41111 163.505 9.74256C164.234 10.0773 164.93 10.5737 165.592 11.2332ZM164.945 11.8795C164.346 11.2799 163.726 10.8268 163.092 10.522C162.454 10.2189 161.822 10.0557 161.196 10.0324C160.57 10.0107 159.957 10.1273 159.361 10.3821C158.764 10.6386 158.208 11.0251 157.688 11.543L155.177 14.0564L162.773 21.6548L165.287 19.1414C165.806 18.6234 166.193 18.0654 166.448 17.4692C166.704 16.8729 166.821 16.2616 166.799 15.6354C166.776 15.0091 166.613 14.3762 166.309 13.7399C166.003 13.1037 165.55 12.4841 164.945 11.8795Z" fill="black"/>
</svg>
