<svg width="163" height="85" viewBox="0 0 163 85" fill="none" xmlns="http://www.w3.org/2000/svg">
<path d="M15.7347 57.2191L15.5215 57.4323C15.4299 57.5206 15.3133 57.5789 15.1867 57.5972L2.07195 59.7624L7.58334 65.2738L7.06534 65.7918L0.729492 59.456L0.954345 59.2311C1.03429 59.1528 1.13589 59.1012 1.24582 59.0845L14.3889 56.9093L8.99075 51.5112L9.50874 50.9932L15.7347 57.2191Z" fill="black"/>
<path d="M23.3045 64.7886L22.7748 65.3183L19.7468 62.2903L11.6554 70.3816L11.0342 69.7604L19.1239 61.669L16.0792 58.6227L16.6089 58.093L23.3045 64.7886Z" fill="black"/>
<rect x="19.8101" y="74.9966" width="1" height="5.37992" transform="rotate(-45 19.8101 74.9966)" fill="black"/>
<rect x="23.9529" y="71.7153" width="1" height="6.24143" transform="rotate(-45 23.9529 71.7153)" fill="black"/>
<path d="M26.8676 78.1352C26.8926 77.967 26.8859 77.7954 26.8493 77.6289C27.2323 77.9453 27.6637 78.2018 28.1251 78.3867C28.5315 78.5499 28.9629 78.6399 29.4009 78.6515C29.814 78.6615 30.2254 78.5849 30.6085 78.4267C31.0115 78.2568 31.3763 78.0086 31.6811 77.6955C32.3723 77.0876 32.7287 76.1832 32.6355 75.2671C32.4056 74.1761 31.8243 73.1918 30.9799 72.4639L29.4642 70.9482L28.9712 71.4413L30.4869 72.9569C31.1431 73.5349 31.5995 74.306 31.791 75.1588C31.8826 75.9017 31.5961 76.6395 31.0299 77.1275C30.755 77.4107 30.4219 77.6305 30.0538 77.7721C29.7057 77.902 29.331 77.9503 28.9612 77.9104C28.5531 77.862 28.1584 77.7355 27.7986 77.5356C27.3706 77.2974 26.9775 76.9976 26.6361 76.6462L25.2003 75.2104L24.7373 75.6718L25.7966 76.7328C25.9299 76.851 26.0365 76.9959 26.1097 77.1558C26.1547 77.2891 26.1664 77.429 26.1447 77.5672L25.4069 83.8231C25.3969 83.9098 25.4035 83.9964 25.4269 84.0796C25.4535 84.1563 25.4985 84.2262 25.5584 84.2828L26.1014 84.8258L26.8676 78.1352Z" fill="black"/>
<path d="M87.6793 82.8705C88.0907 82.4574 88.3888 82.0144 88.5737 81.5447C88.7553 81.0733 88.8319 80.597 88.8036 80.1139C88.7753 79.6326 88.647 79.1579 88.4222 78.6915C88.1923 78.2252 87.8792 77.7905 87.4761 77.3891L82.1546 72.0659L82.7759 71.4463L88.099 76.7695C88.5737 77.2442 88.9418 77.7622 89.2016 78.3235C89.4632 78.8848 89.6064 79.4594 89.6297 80.0473C89.6547 80.6353 89.5548 81.2182 89.3249 81.7978C89.0934 82.3741 88.7286 82.9154 88.2256 83.4184C87.7226 83.9215 87.183 84.2862 86.6067 84.5161C86.0271 84.7442 85.4424 84.8475 84.8545 84.8225C84.2682 84.7992 83.6919 84.656 83.1306 84.3945C82.5693 84.133 82.0513 83.7649 81.5766 83.2902L76.2551 77.967L76.8797 77.3408L82.1979 82.6573C82.5976 83.0587 83.0324 83.3735 83.4987 83.6C83.9667 83.8282 84.4381 83.9564 84.9195 83.9864C85.4008 84.0164 85.8772 83.9414 86.3502 83.7616C86.8215 83.5817 87.2663 83.2835 87.6793 82.8705Z" fill="black"/>
<path d="M93.6338 70.8698L97.0999 74.3359L96.4803 74.9572L87.8726 66.3495L90.0928 64.1293C91.1021 63.1183 92.0848 62.5786 93.0408 62.5086C93.9952 62.437 94.883 62.8101 95.7008 63.6296C96.0789 64.0077 96.3553 64.4241 96.5319 64.8804C96.7084 65.3368 96.7801 65.8115 96.7451 66.3028C96.7101 66.7958 96.5685 67.2955 96.3187 67.8002C96.0705 68.3049 95.7074 68.7945 95.2327 69.2692L93.6338 70.8698ZM93.1341 70.3702L94.7347 68.7696C95.1145 68.3898 95.4026 67.9967 95.5992 67.5903C95.7924 67.1839 95.9006 66.7842 95.924 66.3878C95.9456 65.993 95.8857 65.6133 95.7441 65.2485C95.6025 64.8838 95.381 64.5506 95.0812 64.2508C94.4199 63.5896 93.7071 63.2848 92.9426 63.3348C92.1781 63.3864 91.3919 63.8145 90.5858 64.6223L88.9852 66.2212L93.1341 70.3702Z" fill="black"/>
<path d="M106.043 64.3359L110.126 60.2535L110.654 60.7832L105.952 65.4851L97.344 56.8774L97.9653 56.2578L106.043 64.3359Z" fill="black"/>
<path d="M117.491 45.3315C118.158 45.9961 118.661 46.699 119.004 47.4385C119.345 48.1797 119.528 48.9209 119.55 49.6654C119.573 50.4099 119.437 51.1377 119.144 51.8489C118.851 52.5618 118.396 53.223 117.785 53.8343C117.18 54.4389 116.522 54.8886 115.809 55.1818C115.098 55.4766 114.37 55.6131 113.626 55.5898C112.881 55.5682 112.138 55.3866 111.397 55.0452C110.654 54.7054 109.951 54.2024 109.285 53.5378C108.624 52.8766 108.124 52.1737 107.783 51.4325C107.443 50.6897 107.262 49.9468 107.24 49.2023C107.217 48.4595 107.351 47.73 107.643 47.0154C107.936 46.3026 108.384 45.643 108.989 45.0384C109.6 44.4271 110.263 43.9741 110.974 43.6793C111.685 43.3861 112.415 43.2512 113.161 43.2746C113.907 43.2995 114.65 43.4827 115.391 43.8259C116.131 44.169 116.83 44.6703 117.491 45.3315ZM116.847 45.9761C116.247 45.3765 115.624 44.9201 114.98 44.607C114.335 44.2955 113.696 44.124 113.061 44.094C112.426 44.0624 111.807 44.1723 111.206 44.4221C110.603 44.672 110.041 45.055 109.523 45.5747C109.012 46.086 108.632 46.6407 108.386 47.242C108.138 47.8416 108.028 48.4612 108.054 49.0991C108.081 49.7386 108.249 50.3816 108.559 51.0278C108.869 51.674 109.325 52.2986 109.925 52.8982C110.529 53.5028 111.154 53.9592 111.799 54.2674C112.443 54.5755 113.084 54.742 113.724 54.7687C114.362 54.7953 114.98 54.6837 115.579 54.4339C116.177 54.1857 116.732 53.806 117.243 53.2947C117.761 52.775 118.148 52.2154 118.398 51.6141C118.649 51.0145 118.761 50.3966 118.729 49.762C118.699 49.1274 118.529 48.4895 118.219 47.8466C117.908 47.2036 117.452 46.5807 116.847 45.9761Z" fill="black"/>
<path d="M132.553 38.8826L132.072 39.364C132.017 39.4206 131.954 39.4522 131.887 39.4589C131.82 39.4639 131.752 39.4539 131.684 39.4239L128.168 37.9399L123.941 42.1688L125.43 45.6782C125.458 45.7381 125.468 45.8064 125.461 45.8797C125.453 45.9513 125.42 46.0163 125.363 46.0729L124.888 46.5476L119.803 34.4189L120.423 33.7976L132.553 38.8826ZM123.666 41.5176L127.523 37.6601L121.416 35.0684C121.317 35.0285 121.211 34.9785 121.096 34.9202C120.981 34.8619 120.859 34.797 120.734 34.7287C120.803 34.8536 120.868 34.9752 120.926 35.0901C120.984 35.2067 121.036 35.3149 121.081 35.4149L123.666 41.5176Z" fill="black"/>
<path d="M139.287 23.536C139.952 24.2022 140.45 24.9001 140.783 25.6296C141.116 26.3591 141.288 27.092 141.299 27.8248C141.313 28.5594 141.166 29.2772 140.861 29.9784C140.558 30.6813 140.102 31.3375 139.487 31.9505L136.347 35.0884L127.74 26.4807L130.879 23.3428C131.494 22.7298 132.149 22.2718 132.85 21.9687C133.554 21.6639 134.272 21.5173 135.003 21.529C135.738 21.5423 136.471 21.7138 137.2 22.0453C137.93 22.3801 138.626 22.8764 139.287 23.536ZM138.643 24.1822C138.043 23.5826 137.422 23.1296 136.787 22.8248C136.149 22.5216 135.52 22.3584 134.892 22.3351C134.265 22.3134 133.653 22.43 133.056 22.6849C132.46 22.9414 131.904 23.3278 131.384 23.8474L128.872 26.3591L136.471 33.9575L138.982 31.4458C139.502 30.9261 139.888 30.3682 140.143 29.7719C140.401 29.1756 140.518 28.5644 140.495 27.9381C140.471 27.3118 140.31 26.6789 140.005 26.0427C139.699 25.4064 139.246 24.7868 138.643 24.1822Z" fill="black"/>
<path d="M144.578 9.64307L145.096 10.1611L140.564 14.6914L144.044 18.1725L147.815 14.4L148.319 14.9046L144.548 18.6771L148.138 22.2665L152.67 17.7344L153.186 18.2508L148.028 23.4091L139.42 14.8014L144.578 9.64307Z" fill="black"/>
<path d="M160.592 2.23325C161.256 2.89948 161.754 3.59736 162.087 4.32688C162.42 5.0564 162.592 5.78925 162.604 6.52211C162.617 7.25663 162.47 7.97449 162.166 8.6757C161.862 9.37857 161.404 10.0348 160.792 10.6461L157.652 13.7857L149.044 5.17799L152.184 2.03838C152.797 1.42711 153.453 0.969078 154.154 0.665942C154.857 0.361142 155.575 0.214571 156.308 0.22623C157.042 0.239555 157.773 0.41111 158.505 0.742559C159.234 1.07734 159.93 1.57368 160.592 2.23325ZM159.945 2.87949C159.346 2.27989 158.726 1.82685 158.092 1.52205C157.454 1.21891 156.822 1.05569 156.196 1.03237C155.57 1.01072 154.957 1.12731 154.361 1.38214C153.764 1.63864 153.208 2.02505 152.688 2.54305L150.177 5.0564L157.773 12.6548L160.287 10.1414C160.806 9.62341 161.193 9.06544 161.448 8.46917C161.704 7.87289 161.821 7.26162 161.799 6.63537C161.776 6.00911 161.613 5.37619 161.309 4.73994C161.003 4.10369 160.55 3.4841 159.945 2.87949Z" fill="black"/>
</svg>
