<svg width="156" height="16" viewBox="0 0 156 16" fill="none" xmlns="http://www.w3.org/2000/svg">
<path d="M28.8616 0.100098V1.04293H34.277V15.4261H35.3823V1.04293H40.7651V0.100098H28.8616Z" fill="white"/>
<path d="M150.1 8.79708C149.962 8.6165 149.807 8.47217 149.633 8.36411C150.306 8.29158 150.908 8.13855 151.443 7.90357C151.977 7.66932 152.434 7.36979 152.813 7.00426C153.192 6.64018 153.482 6.21591 153.685 5.73217C153.887 5.24842 153.988 4.71391 153.988 4.12863C153.988 2.80722 153.551 1.80565 152.677 1.12319C151.803 0.440722 150.482 0.0998535 148.713 0.0998535H146.02V0.976684H148.713C150.078 0.976684 151.118 1.24068 151.832 1.76793C152.548 2.29519 152.905 3.10385 152.905 4.19391C152.905 4.72842 152.808 5.20853 152.613 5.63426C152.418 6.0607 152.134 6.42478 151.762 6.72866C151.39 7.03182 150.935 7.26463 150.397 7.42708C149.86 7.58954 149.251 7.67077 148.572 7.67077H146.02V8.49393H147.912C148.208 8.49393 148.426 8.52657 148.567 8.59111C148.708 8.65639 148.839 8.76807 148.963 8.9269L153.869 15.1445C153.948 15.2453 154.029 15.3171 154.113 15.3606C154.195 15.4041 154.295 15.4259 154.411 15.4259H155.375L150.1 8.79708Z" fill="white"/>
<path d="M50.1201 8.59256C50.2608 8.65784 50.3928 8.76953 50.5154 8.92835L55.4224 15.1467C55.5022 15.2475 55.5834 15.3193 55.6668 15.3628C55.7444 15.4034 55.8372 15.423 55.9439 15.4259L56.4914 14.8783L51.6533 8.79854C51.5155 8.61795 51.3603 8.47362 51.1869 8.36483C51.8585 8.29303 52.4619 8.13928 52.9964 7.9043C53.5302 7.67004 53.9879 7.37051 54.3664 7.00571C54.7457 6.64091 55.0366 6.21663 55.2389 5.73289C55.4406 5.24915 55.5421 4.71464 55.5421 4.12936C55.5421 2.80795 55.1047 1.80565 54.2308 1.12319C53.3569 0.440722 52.0355 0.0998535 50.2666 0.0998535H47.5723V0.976684H50.2666C51.6315 0.976684 52.6715 1.24068 53.3866 1.76793C54.101 2.29519 54.4585 3.10385 54.4585 4.19463C54.4585 4.72914 54.3614 5.20926 54.1663 5.63498C53.9712 6.06143 53.6876 6.42623 53.3156 6.72939C52.9435 7.03254 52.4888 7.26535 51.9506 7.42781C51.4125 7.59026 50.8047 7.67149 50.1259 7.67149H47.5723V8.49465H49.4645C49.7611 8.49465 49.9794 8.52729 50.1201 8.59256Z" fill="white"/>
<path d="M67.1091 1.36324C67.1352 1.44882 67.1606 1.53875 67.1867 1.61998C67.236 1.77591 67.286 1.91516 67.3361 2.03845L70.4329 9.82332L63.6373 9.78633L63.2979 10.6102L70.7542 10.6508L72.5441 15.1256C72.5797 15.2134 72.6304 15.2837 72.695 15.3389C72.7602 15.3933 72.8429 15.4208 72.9452 15.4215L73.8031 15.4266L67.6298 0.0998535L67.1091 1.36324Z" fill="white"/>
<path d="M107.803 2.09067C107.74 2.21106 107.648 2.27126 107.527 2.27126C107.435 2.27126 107.316 2.20599 107.172 2.07472C107.026 1.94417 106.83 1.79912 106.582 1.64102C106.334 1.48146 106.024 1.33568 105.652 1.20151C105.281 1.06734 104.822 0.999892 104.276 0.999892C103.731 0.999892 103.251 1.07749 102.837 1.2327C102.422 1.38863 102.075 1.6004 101.795 1.86874C101.515 2.13709 101.303 2.4475 101.158 2.80069C101.012 3.15389 100.94 3.5245 100.94 3.91251C100.94 4.42091 101.047 4.84083 101.263 5.173C101.479 5.50516 101.763 5.78728 102.117 6.02009C102.47 6.25362 102.872 6.44944 103.321 6.60827C103.77 6.7671 104.231 6.92448 104.705 7.07969C105.178 7.23489 105.64 7.40605 106.089 7.59316C106.538 7.78028 106.939 8.01526 107.293 8.29739C107.646 8.58023 107.931 8.92763 108.147 9.34102C108.363 9.75442 108.47 10.2679 108.47 10.8822C108.47 11.511 108.363 12.1021 108.148 12.6562C107.932 13.2102 107.62 13.6925 107.21 14.1016C106.8 14.5113 106.299 14.8341 105.706 15.0712C105.113 15.3077 104.435 15.4259 103.673 15.4259C102.684 15.4259 101.833 15.2511 101.12 14.9015C100.406 14.552 99.7818 14.074 99.2451 13.4663L99.5418 13.0006C99.6266 12.894 99.7252 12.8411 99.8384 12.8411C99.9015 12.8411 99.9834 12.8839 100.082 12.9687C100.181 13.0536 100.301 13.1573 100.443 13.2813C100.584 13.4046 100.754 13.5388 100.952 13.6838C101.15 13.8282 101.38 13.9623 101.641 14.0864C101.902 14.2096 102.203 14.3134 102.543 14.3982C102.882 14.4831 103.267 14.5259 103.699 14.5259C104.293 14.5259 104.823 14.4352 105.29 14.2553C105.756 14.0755 106.151 13.8303 106.473 13.5192C106.794 13.2088 107.04 12.8396 107.21 12.4125C107.38 11.9853 107.464 11.5284 107.464 11.041C107.464 10.5116 107.356 10.075 107.141 9.73266C106.925 9.39034 106.641 9.10459 106.287 8.87469C105.933 8.64551 105.532 8.45331 105.083 8.29739C104.634 8.14218 104.173 7.9906 103.699 7.84193C103.225 7.69397 102.763 7.52789 102.314 7.3444C101.865 7.16091 101.464 6.92593 101.11 6.64018C100.757 6.35371 100.472 5.99761 100.257 5.57044C100.041 5.14326 99.9334 4.60802 99.9334 3.96545C99.9334 3.4643 100.029 2.98056 100.22 2.51422C100.411 2.04861 100.69 1.63739 101.058 1.28056C101.425 0.923741 101.88 0.637991 102.421 0.422591C102.961 0.207191 103.578 0.0998535 104.272 0.0998535C105.049 0.0998535 105.748 0.223146 106.366 0.470458C106.985 0.717769 107.549 1.0949 108.058 1.60403L107.803 2.09067Z" fill="white"/>
<path d="M81.39 0.137567C81.448 0.162951 81.5089 0.218795 81.5742 0.3051L91.4957 13.5845C91.4739 13.3684 91.463 13.1588 91.463 12.9564V0.0998535H92.4378V15.4259H91.9069C91.7408 15.4259 91.6074 15.3541 91.5066 15.2098L81.5416 1.90863C81.5633 2.12476 81.5742 2.33073 81.5742 2.52582V15.4259H80.6104V0.0998535H81.1514C81.2529 0.0998535 81.332 0.112183 81.39 0.137567Z" fill="white"/>
<path d="M11.3509 0.0998535V0.479161C11.3509 0.630738 11.3002 0.77869 11.1994 0.923015L1.47299 14.5055H11.2646V15.4259H0V15.0256C0 14.8878 0.0427899 14.7579 0.12982 14.6354L9.87794 1.02092H0.281398V0.0998535H11.3509Z" fill="white"/>
<path d="M139.213 0.0998535V1.0202H131.144V7.21603H137.859V8.11462H131.144V14.5055H139.213V15.4259H130.028V0.0998535H139.213Z" fill="white"/>
<rect x="115.277" y="7.55786" width="6.84639" height="1" fill="white"/>
<rect x="115.277" y="0.0993652" width="7.94296" height="1" fill="white"/>
<path d="M21.392 10.687H21.3107C21.1671 10.6979 21.0373 10.7233 20.9249 10.7682C20.7001 10.8589 20.4883 11.0105 20.2649 11.1396C19.8501 11.3789 19.3699 11.648 18.9522 11.8888C18.6077 12.0868 18.1653 12.2717 18.1588 12.7634C18.1515 13.2754 18.6034 13.4451 18.9297 13.6315C19.9661 14.2212 22.0519 15.4258 22.0519 15.4258V14.8695C22.0519 14.8695 20.0176 13.72 18.9892 13.1492C18.8579 13.076 18.6853 12.9317 18.6853 12.7634C18.6853 12.5088 18.9885 12.3812 19.1966 12.2666C19.7551 11.9598 20.2888 11.6647 20.8284 11.3767C20.9981 11.2861 21.2208 11.1026 21.4514 11.2281C21.6015 11.3107 21.5921 11.4754 21.5921 11.7103C21.5957 11.7111 21.5921 13.9797 21.5921 13.9797H22.0519V11.9178C22.0519 11.9178 22.0664 11.4326 22.0295 11.236C21.9685 10.9104 21.7161 10.7334 21.392 10.687Z" fill="white"/>
<path d="M18.821 11.521H18.9022C19.0458 11.5101 19.1756 11.4848 19.288 11.4398C19.5129 11.3491 19.7247 11.1976 19.948 11.0685C20.3629 10.8291 20.843 10.5601 21.2607 10.3193C21.6052 10.1213 22.0476 9.93635 22.0542 9.44463C22.0614 8.9326 21.6096 8.76289 21.2832 8.5765C20.2468 7.98687 18.161 6.78223 18.161 6.78223V7.3385C18.161 7.3385 20.1953 8.48802 21.2237 9.05879C21.355 9.13204 21.5276 9.27637 21.5276 9.44463C21.5276 9.69919 21.2245 9.82683 21.0163 9.94143C20.4579 10.2482 19.9241 10.5434 19.3845 10.8313C19.2148 10.922 18.9921 11.1055 18.7615 10.98C18.6114 10.8973 18.6208 10.7327 18.6208 10.4977C18.6172 10.497 18.6208 8.22838 18.6208 8.22838H18.161V10.2903C18.161 10.2903 18.1465 10.7755 18.1835 10.972C18.2444 11.2976 18.4968 11.4746 18.821 11.521Z" fill="white"/>
<path d="M21.392 4.00391H21.3107C21.1671 4.01479 21.0373 4.04017 20.9249 4.08513C20.7001 4.17579 20.4883 4.32737 20.2649 4.45646C19.8501 4.6958 19.3699 4.96487 18.9522 5.20565C18.6077 5.40364 18.1653 5.58858 18.1588 6.08031C18.1515 6.59233 18.6034 6.76204 18.9297 6.94843C19.9661 7.53806 22.0519 8.74271 22.0519 8.74271V8.18644C22.0519 8.18644 20.0176 7.03691 18.9892 6.46614C18.8579 6.39289 18.6853 6.24856 18.6853 6.08031C18.6853 5.82574 18.9885 5.6981 19.1966 5.58351C19.7551 5.27672 20.2888 4.98155 20.8284 4.69362C20.9981 4.60297 21.2208 4.41948 21.4514 4.54494C21.6015 4.62762 21.5921 4.79226 21.5921 5.02724C21.5957 5.02796 21.5921 7.29655 21.5921 7.29655H22.0519V5.23466C22.0519 5.23466 22.0664 4.74947 22.0295 4.55292C21.9685 4.22728 21.7161 4.05032 21.392 4.00391Z" fill="white"/>
<path d="M18.821 4.83865H18.9022C19.0458 4.82778 19.1756 4.80239 19.288 4.75743C19.5129 4.66677 19.7247 4.51519 19.948 4.3861C20.3629 4.14676 20.843 3.8777 21.2607 3.63691C21.6052 3.43892 22.0476 3.25398 22.0542 2.76226C22.0614 2.25023 21.6096 2.08052 21.2832 1.89413C20.2468 1.3045 18.161 0.0998535 18.161 0.0998535V0.656122C18.161 0.656122 20.1953 1.80565 21.2237 2.37642C21.355 2.44967 21.5276 2.594 21.5276 2.76226C21.5276 3.01682 21.2245 3.14446 21.0163 3.25905C20.4579 3.56584 19.9241 3.86101 19.3845 4.14894C19.2148 4.2396 18.9921 4.42308 18.7615 4.29762C18.6114 4.21494 18.6208 4.05031 18.6208 3.81532C18.6172 3.8146 18.6208 1.54601 18.6208 1.54601H18.161V3.6079C18.161 3.6079 18.1465 4.09309 18.1835 4.28964C18.2444 4.61528 18.4968 4.79224 18.821 4.83865Z" fill="white"/>
</svg>
